<?xml version="1.0" encoding="utf-8"?>
<!-- Generator: Adobe Illustrator 19.0.0, SVG Export Plug-In . SVG Version: 6.00 Build 0)  -->
<svg version="1.2" baseProfile="tiny" id="Layer_1" xmlns="http://www.w3.org/2000/svg" xmlns:xlink="http://www.w3.org/1999/xlink"
	 x="0px" y="0px" viewBox="0 0 100 100" xml:space="preserve">
<g id="XMLID_1_">
	<path id="XMLID_3_" d="M52.7,97.4c-1,1-2.3,1.6-3.8,1.6c-1.5,0-2.7-0.5-3.8-1.6L2.1,54.3c-1-1-1.6-2.3-1.6-3.8
		c0-1.5,0.5-2.7,1.6-3.8L45.2,3.6c1-1,2.3-1.6,3.8-1.6c1.5,0,2.7,0.5,3.8,1.6l5.1,4.9c1,1,1.5,2.3,1.4,3.8s-0.6,2.7-1.7,3.8L31,41.6
		h63.8c1.5,0,2.7,0.5,3.8,1.6s1.6,2.3,1.6,3.8v7.1c0,1.5-0.5,2.7-1.6,3.8c-1,1-2.3,1.6-3.8,1.6H31L57.6,85c1,1,1.6,2.3,1.7,3.8
		s-0.4,2.7-1.4,3.8L52.7,97.4z"/>
</g>
</svg>
