<?xml version="1.0" encoding="utf-8"?>
<!-- Generator: Adobe Illustrator 19.0.0, SVG Export Plug-In . SVG Version: 6.00 Build 0)  -->
<svg version="1.1" id="Layer_1" xmlns="http://www.w3.org/2000/svg" xmlns:xlink="http://www.w3.org/1999/xlink" x="0px" y="0px"
	 viewBox="0 0 100 100" style="enable-background:new 0 0 100 100;" xml:space="preserve">
<style type="text/css">
	.st0{fill:#969696;}
</style>
<g id="XMLID_2_">
	<path id="XMLID_20_" class="st0" d="M28,74.6h7.8c0.6,0,1.2-0.2,1.7-0.7s0.7-1,0.7-1.7v-7.8c0-0.6-0.2-1.2-0.7-1.7s-1-0.7-1.7-0.7
		H28c-0.6,0-1.2,0.2-1.7,0.7s-0.7,1-0.7,1.7v7.8c0,0.6,0.2,1.2,0.7,1.7S27.4,74.6,28,74.6z"/>
	<path id="XMLID_21_" class="st0" d="M28,56h7.8c0.6,0,1.2-0.2,1.7-0.7s0.7-1,0.7-1.7v-7.8c0-0.6-0.2-1.2-0.7-1.7s-1-0.7-1.7-0.7H28
		c-0.6,0-1.2,0.2-1.7,0.7s-0.7,1-0.7,1.7v7.8c0,0.6,0.2,1.2,0.7,1.7S27.4,56,28,56z"/>
	<path id="XMLID_22_" class="st0" d="M65.3,56h7.8c0.6,0,1.2-0.2,1.7-0.7s0.7-1,0.7-1.7v-7.8c0-0.6-0.2-1.2-0.7-1.7s-1-0.7-1.7-0.7
		h-7.8c-0.6,0-1.2,0.2-1.7,0.7c-0.5,0.5-0.7,1-0.7,1.7v7.8c0,0.6,0.2,1.2,0.7,1.7C64.1,55.7,64.7,56,65.3,56z"/>
	<path id="XMLID_25_" class="st0" d="M91.4,15.2c-1.8-1.8-4-2.7-6.6-2.7h-9.3V2.3c0-0.6-0.2-1.2-0.7-1.7S73.7,0,73.1,0h-7.8
		c-0.6,0-1.2,0.2-1.7,0.7c-0.5,0.5-0.7,1-0.7,1.7v10.1H38.1V2.3c0-0.6-0.2-1.2-0.7-1.7S36.4,0,35.8,0H28c-0.6,0-1.2,0.2-1.7,0.7
		s-0.7,1-0.7,1.7v10.1h-9.3c-2.6,0-4.8,0.9-6.6,2.7S7,19.2,7,21.8v68.4c0,2.6,0.9,4.8,2.7,6.6s4,2.7,6.6,2.7h68.4
		c2.6,0,4.8-0.9,6.6-2.7s2.7-4,2.7-6.6V21.8C94.1,19.2,93.2,17,91.4,15.2z M84.7,89c0,0.3-0.1,0.5-0.4,0.8s-0.5,0.4-0.8,0.4H17.5
		c-0.3,0-0.5-0.1-0.8-0.4s-0.4-0.5-0.4-0.8V31.1h68.4V89z"/>
	<path id="XMLID_26_" class="st0" d="M65.3,74.6h7.8c0.6,0,1.2-0.2,1.7-0.7s0.7-1,0.7-1.7v-7.8c0-0.6-0.2-1.2-0.7-1.7
		s-1-0.7-1.7-0.7h-7.8c-0.6,0-1.2,0.2-1.7,0.7c-0.5,0.5-0.7,1-0.7,1.7v7.8c0,0.6,0.2,1.2,0.7,1.7C64.1,74.4,64.7,74.6,65.3,74.6z"/>
	<path id="XMLID_27_" class="st0" d="M46.7,74.6h7.8c0.6,0,1.2-0.2,1.7-0.7s0.7-1,0.7-1.7v-7.8c0-0.6-0.2-1.2-0.7-1.7
		s-1-0.7-1.7-0.7h-7.8c-0.6,0-1.2,0.2-1.7,0.7s-0.7,1-0.7,1.7v7.8c0,0.6,0.2,1.2,0.7,1.7S46,74.6,46.7,74.6z"/>
	<path id="XMLID_28_" class="st0" d="M46.7,56h7.8c0.6,0,1.2-0.2,1.7-0.7s0.7-1,0.7-1.7v-7.8c0-0.6-0.2-1.2-0.7-1.7s-1-0.7-1.7-0.7
		h-7.8c-0.6,0-1.2,0.2-1.7,0.7s-0.7,1-0.7,1.7v7.8c0,0.6,0.2,1.2,0.7,1.7S46,56,46.7,56z"/>
</g>
</svg>
