<?xml version="1.0" encoding="utf-8"?>
<!-- Generator: Adobe Illustrator 19.0.0, SVG Export Plug-In . SVG Version: 6.00 Build 0)  -->
<svg version="1.1" id="Layer_1" xmlns="http://www.w3.org/2000/svg" xmlns:xlink="http://www.w3.org/1999/xlink" x="0px" y="0px"
	 viewBox="-255 347 100 100" style="enable-background:new -255 347 100 100;" xml:space="preserve">
<style type="text/css">
	.st0{fill:#424952;}
</style>
<g id="XMLID_27_">
	<path id="XMLID_29_" class="st0" d="M-155.4,411.8c-2.8-10.2-9.1-17.9-18.7-22.9c-0.6-0.3-1.1-0.6-1.7-0.8c3.8-4,5.8-8.9,5.8-14.1
		c0-5.5-2.4-10.9-6.6-14.7c-5.7-5.2-13.2-6.5-19.9-4c0.5,0.4,1,0.8,1.5,1.3c0.1,0.1,0.1,0.1,0.2,0.2c0.4,0.4,0.8,0.7,1.2,1.2
		c0.2,0.2,0.3,0.3,0.5,0.5l0.1,0.1c0.1,0.1,0.1,0.1,0.2,0.2l0.1,0.1c0.4,0.5,0.9,1,1.3,1.5c4.3-0.5,8.1,0.7,11.2,3.5
		c3.2,2.9,4.7,7.6,4.1,12.1s-3.3,8.2-7.4,10.2c-1.4,0.7-2.2,1.9-2,3.2c0.2,1.4,1,2.4,2.7,2.8c11.2,3,18.5,10.2,21.7,21.5
		c0.2,0.7,0.2,1.5,0.1,2.1c-0.4,2.6-2.6,4.4-5.2,4.4c-0.8,0-1.6,0-2.5,0c0.2,0.6,0.4,1.1,0.5,1.7c0.1,0.2,0.1,0.4,0.2,0.6
		c0.2,0.7,0.4,1.5,0.4,2.2c0.1,0.6,0.1,1.1,0.1,1.7c0.3,0,0.6,0,0.9,0c3.8,0,7.2-1.7,9.4-4.6C-155.1,419-154.5,415.3-155.4,411.8z"
		/>
	<path id="XMLID_28_" class="st0" d="M-172.8,416.3c-0.1-0.2-0.1-0.4-0.2-0.6c-2.3-4.8-5.3-9-9.2-12.7c-3.6-3.5-7.6-6.2-12.1-8.3
		c-0.7-0.3-1.4-0.6-2.1-0.9c-0.1,0-0.1-0.1-0.2-0.1c11-10.3,9.9-24.7,2-33.5c-0.1-0.1-0.1-0.2-0.2-0.2c-0.1-0.1-0.3-0.3-0.4-0.4
		c-0.4-0.4-0.7-0.8-1.1-1.1c-4.4-4.1-9.9-6.1-15.3-6.2c-0.1,0-0.3,0-0.4,0c-0.1,0-0.3,0-0.4,0c-5.5,0.1-10.9,2.2-15.3,6.2
		c-0.4,0.4-0.8,0.7-1.1,1.1c-0.1,0.1-0.3,0.3-0.4,0.4s-0.1,0.2-0.2,0.2c-8,8.8-9,23.1,2,33.5c-0.1,0-0.1,0.1-0.2,0.1
		c-0.7,0.3-1.4,0.6-2.1,0.9c-4.5,2.1-8.5,4.8-12.1,8.3c-3.8,3.7-6.9,7.9-9.2,12.7c-0.1,0.2-0.2,0.4-0.2,0.6c-1,2.1-1.8,4.4-2.4,6.8
		c-2.3,8.2,3.6,16.7,13,16.7c4.7,0,9.3,0,14,0c4.9,0,9.8,0,14.7,0c4.9,0,9.8,0,14.7,0c4.7,0,9.3,0,14,0c9.4,0,15.3-8.6,13-16.7
		C-171,420.7-171.8,418.5-172.8,416.3z"/>
</g>
</svg>
