<?xml version="1.0" encoding="utf-8"?>
<!-- Generator: Adobe Illustrator 19.0.0, SVG Export Plug-In . SVG Version: 6.00 Build 0)  -->
<svg version="1.2" baseProfile="tiny" id="Layer_1" xmlns="http://www.w3.org/2000/svg" xmlns:xlink="http://www.w3.org/1999/xlink"
	 x="0px" y="0px" viewBox="0 0 100 100" xml:space="preserve">
<g id="XMLID_2_">
	<path id="XMLID_4_" fill="#FFFFFF" d="M87.7,25.7v65.1c0,2.6-0.9,4.8-2.7,6.7c-1.8,1.8-4.1,2.7-6.7,2.7H21.8
		c-2.6,0-4.8-0.9-6.7-2.7s-2.7-4.1-2.7-6.7V9.2c0-2.6,0.9-4.8,2.7-6.7s4.1-2.7,6.7-2.7h40c2.6,0,4.8,0.9,6.7,2.7L84.9,19
		C86.7,20.8,87.7,23.1,87.7,25.7z M78.2,90.8V34.3H57.8c-1.3,0-2.4-0.5-3.3-1.4s-1.4-2-1.4-3.3V9.2H21.8v81.6
		C21.8,90.8,78.2,90.8,78.2,90.8z M65.4,44.9c0.5,0.8,0.4,1.6-0.1,2.4c-4.6,8-7.6,13.1-9,15.3l9,15.3c0.5,0.8,0.6,1.6,0.1,2.4
		s-1.1,1.2-2.1,1.2h-5.7c-0.9,0-1.6-0.4-2-1.2c-1.8-3.4-3.1-5.8-3.7-7.3l-2-4.1L49.6,70c-1,2.4-2.8,5.8-5.3,10.2
		c-0.4,0.8-1,1.2-2,1.2h-5.7c-0.9,0-1.6-0.4-2.1-1.2s-0.4-1.6,0.1-2.4l9-15.3l-9-15.3c-0.5-0.8-0.6-1.6-0.1-2.4
		c0.5-0.8,1.1-1.2,2.1-1.2h5.7c0.9,0,1.6,0.4,2.2,1.2c1.8,3.7,3.1,6.2,3.7,7.6l1.8,3.7c1.2-2.9,3.1-6.7,5.7-11.4
		c0.4-0.8,1-1.2,2-1.2h5.7C64.3,43.7,64.9,44.1,65.4,44.9z M62.6,10v14.9h14.9L62.6,10z"/>
</g>
</svg>
