<?xml version="1.0" encoding="utf-8"?>
<!-- Generator: Adobe Illustrator 19.0.0, SVG Export Plug-In . SVG Version: 6.00 Build 0)  -->
<svg version="1.2" baseProfile="tiny" id="Layer_1" xmlns="http://www.w3.org/2000/svg" xmlns:xlink="http://www.w3.org/1999/xlink"
	 x="0px" y="0px" viewBox="0 0 12 16" xml:space="preserve">
<g id="XMLID_2_">
	<path id="XMLID_4_" fill="#FFFFFF" d="M12,4.1v10.4c0,0.4-0.1,0.8-0.4,1.1c-0.3,0.3-0.7,0.4-1.1,0.4h-9c-0.4,0-0.8-0.1-1.1-0.4
		S0,14.9,0,14.5v-13c0-0.4,0.1-0.8,0.4-1.1S1.1,0,1.5,0h6.4c0.4,0,0.8,0.1,1.1,0.4l2.6,2.6C11.8,3.3,12,3.7,12,4.1z M10.5,14.5v-9
		H7.2C7,5.5,6.9,5.4,6.7,5.3C6.6,5.1,6.5,4.9,6.5,4.7V1.5h-5v13C1.5,14.5,10.5,14.5,10.5,14.5z M8.4,7.2c0.1,0.1,0.1,0.3,0,0.4
		C7.7,8.8,7.2,9.6,7,10l1.4,2.4c0.1,0.1,0.1,0.3,0,0.4S8.3,13,8.1,13H7.2c-0.1,0-0.3-0.1-0.3-0.2c-0.3-0.5-0.5-0.9-0.6-1.2L6,11
		l0,0.2c-0.2,0.4-0.4,0.9-0.8,1.6C5,12.9,4.9,13,4.8,13H3.9c-0.1,0-0.3-0.1-0.3-0.2c-0.1-0.1-0.1-0.3,0-0.4L5,10L3.5,7.5
		c-0.1-0.1-0.1-0.3,0-0.4C3.6,7,3.7,7,3.9,7h0.9C4.9,7,5,7,5.1,7.2c0.3,0.6,0.5,1,0.6,1.2L6,9c0.2-0.5,0.5-1.1,0.9-1.8
		C7,7,7.1,6.9,7.2,6.9h0.9C8.3,7,8.4,7,8.4,7.2z M8,1.6V4h2.4L8,1.6z"/>
</g>
</svg>
