<?xml version="1.0" encoding="utf-8"?>
<!-- Generator: Adobe Illustrator 19.0.0, SVG Export Plug-In . SVG Version: 6.00 Build 0)  -->
<svg version="1.1" id="Layer_1" xmlns="http://www.w3.org/2000/svg" xmlns:xlink="http://www.w3.org/1999/xlink" x="0px" y="0px"
	 viewBox="0 0 100 100" style="enable-background:new 0 0 100 100;" xml:space="preserve">
<style type="text/css">
	
</style>
<g id="XMLID_2_" class='ThemeMenuIcon'>
	<path id="XMLID_14_" class="st0" d="M50,0C22.4,0,0,22.4,0,50c0,9,2.4,17.8,7,25.5L1.5,98.8l22.6-6.1c7.8,4.8,16.8,7.3,25.9,7.3
		c27.6,0,50-22.4,50-50S77.6,0,50,0z M54.2,77.4h-7.8v-7.8h7.8V77.4z M60.9,49.6l-6.6,6.1v6.1h-7.8v-9.5l9.2-8.4
		c1.6-1.5,2.5-3.5,2.5-5.8c0-4.3-3.5-7.8-7.8-7.8s-7.8,3.5-7.8,7.8h-7.8c0-8.6,7-15.6,15.6-15.6S66,29.5,66,38.1
		C66,42.5,64.1,46.7,60.9,49.6z"/>
</g>
</svg>
