<?xml version="1.0" encoding="utf-8"?>
<!-- Generator: Adobe Illustrator 19.0.0, SVG Export Plug-In . SVG Version: 6.00 Build 0)  -->
<svg version="1.2" baseProfile="tiny" xmlns="http://www.w3.org/2000/svg" xmlns:xlink="http://www.w3.org/1999/xlink" x="0px"
	 y="0px" viewBox="-4 5 13 13" xml:space="preserve">
<g id="Layer_1">
</g>
<g id="Layer_2">
	<g>
		<path fill="#ddd" d="M2.5,5C6.1,5,9,7.9,9,11.5C9,15.1,6.1,18,2.5,18C-1.1,18-4,15.1-4,11.5C-4,7.9-1.1,5,2.5,5z M2.5,5.9
			c-3.1,0-5.6,2.5-5.6,5.6c0,3.1,2.5,5.6,5.6,5.6c3.1,0,5.6-2.5,5.6-5.6C8.1,8.4,5.6,5.9,2.5,5.9z"/>
		<path fill="#ddd" d="M1.3,10.6c0.1-0.1,0.1-0.2,0.2-0.2c0.7-0.1,1.4-0.2,2.2-0.3c-0.3,1-0.5,1.9-0.8,2.8
			c-0.2,0.5-0.3,1.1-0.4,1.6c0,0.1,0,0.3,0.1,0.4c0.1-0.1,0.3-0.1,0.3-0.2c0.2-0.1,0.3-0.3,0.4-0.5C3.3,14,3.4,14,3.5,14
			c-0.4,0.7-0.8,1.3-1.7,1.5c-0.7,0.1-1.1-0.3-1-1c0.2-1,0.5-1.9,0.8-2.8c0-0.1,0.1-0.3,0.1-0.4C2,10.8,1.9,10.7,1.3,10.6z"/>
		<path fill="#ddd" d="M3.2,7.5c0.5,0,0.8,0.4,0.8,0.8c0,0.5-0.4,0.9-0.9,0.8c-0.4,0-0.8-0.4-0.8-0.8C2.4,7.8,2.7,7.5,3.2,7.5z"
			/>
	</g>
</g>
</svg>
