<?xml version="1.0" encoding="utf-8"?>
<!-- Generator: Adobe Illustrator 19.0.0, SVG Export Plug-In . SVG Version: 6.00 Build 0)  -->
<svg version="1.2" baseProfile="tiny" id="Layer_1" xmlns="http://www.w3.org/2000/svg" xmlns:xlink="http://www.w3.org/1999/xlink"
	 x="0px" y="0px" viewBox="0 0 100 100" xml:space="preserve">
<g>
	<path fill="none" d="M50,14.3c-19.7,0-35.7,16-35.7,35.7c0,19.7,16,35.7,35.7,35.7c19.7,0,35.7-16,35.7-35.7
		C85.7,30.3,69.7,14.3,50,14.3z M57.1,76.2H42.9V42.9h14.3V76.2z M57.1,38.1H42.9V23.8h14.3V38.1z"/>
	<path fill="#D1D1D1" d="M50,0C22.4,0,0,22.4,0,50c0,27.6,22.4,50,50,50c27.6,0,50-22.4,50-50C100,22.4,77.6,0,50,0z M50,85.7
		c-19.7,0-35.7-16-35.7-35.7c0-19.7,16-35.7,35.7-35.7c19.7,0,35.7,16,35.7,35.7C85.7,69.7,69.7,85.7,50,85.7z"/>
	<rect id="XMLID_23_" x="42.9" y="42.9" fill="#D1D1D1" width="14.3" height="33.3"/>
	<rect id="XMLID_20_" x="42.9" y="23.8" fill="#D1D1D1" width="14.3" height="14.3"/>
</g>
</svg>
