<svg width="96" height="96" viewBox="0 0 96 96" fill="none" xmlns="http://www.w3.org/2000/svg">
<g clip-path="url(#clip0_16314_127584)">
<ellipse cx="75.0594" cy="70.5309" rx="0.804501" ry="0.832556" fill="#9BDEF7"/>
<ellipse cx="75.0589" cy="74.9994" rx="0.804501" ry="0.832561" fill="#9BDEF7"/>
<ellipse cx="75.0589" cy="79.4682" rx="0.804501" ry="0.832561" fill="#9BDEF7"/>
<ellipse cx="75.0589" cy="83.9385" rx="0.804501" ry="0.832569" fill="#9BDEF7"/>
<ellipse cx="75.0589" cy="88.4081" rx="0.804501" ry="0.832554" fill="#9BDEF7"/>
<ellipse cx="79.3773" cy="70.5301" rx="0.804497" ry="0.832563" fill="#9BDEF7"/>
<ellipse cx="79.3773" cy="74.9994" rx="0.804497" ry="0.832561" fill="#9BDEF7"/>
<ellipse cx="79.3773" cy="79.4682" rx="0.804497" ry="0.832561" fill="#9BDEF7"/>
<ellipse cx="79.3773" cy="83.9385" rx="0.804497" ry="0.832569" fill="#9BDEF7"/>
<ellipse cx="79.3773" cy="88.4081" rx="0.804497" ry="0.832554" fill="#9BDEF7"/>
<ellipse cx="83.6966" cy="70.5301" rx="0.804497" ry="0.832563" fill="#9BDEF7"/>
<ellipse cx="83.6966" cy="74.9994" rx="0.804497" ry="0.832561" fill="#9BDEF7"/>
<ellipse cx="83.6966" cy="79.4682" rx="0.804497" ry="0.832561" fill="#9BDEF7"/>
<ellipse cx="83.6966" cy="83.9385" rx="0.804497" ry="0.832569" fill="#9BDEF7"/>
<ellipse cx="83.6966" cy="88.4081" rx="0.804497" ry="0.832554" fill="#9BDEF7"/>
<ellipse cx="88.015" cy="70.5301" rx="0.804501" ry="0.832563" fill="#9BDEF7"/>
<ellipse cx="88.015" cy="74.9994" rx="0.804501" ry="0.832561" fill="#9BDEF7"/>
<ellipse cx="88.015" cy="79.4682" rx="0.804501" ry="0.832561" fill="#9BDEF7"/>
<ellipse cx="88.015" cy="83.9385" rx="0.804501" ry="0.832569" fill="#9BDEF7"/>
<ellipse cx="88.015" cy="88.4081" rx="0.804501" ry="0.832554" fill="#9BDEF7"/>
<ellipse cx="92.3338" cy="70.5301" rx="0.804501" ry="0.832563" fill="#9BDEF7"/>
<ellipse cx="92.3338" cy="74.9994" rx="0.804501" ry="0.832561" fill="#9BDEF7"/>
<ellipse cx="92.3338" cy="79.4682" rx="0.804501" ry="0.832561" fill="#9BDEF7"/>
<ellipse cx="92.3338" cy="83.9385" rx="0.804501" ry="0.832569" fill="#9BDEF7"/>
<ellipse cx="92.3338" cy="88.4081" rx="0.804501" ry="0.832554" fill="#9BDEF7"/>
<ellipse cx="0.804499" cy="6.83292" rx="0.804499" ry="0.832558" fill="#9BDEF7"/>
<ellipse cx="0.804499" cy="11.3019" rx="0.804499" ry="0.832559" fill="#9BDEF7"/>
<ellipse cx="0.804499" cy="15.7708" rx="0.804499" ry="0.83256" fill="#9BDEF7"/>
<ellipse cx="0.804499" cy="20.2411" rx="0.804499" ry="0.832557" fill="#9BDEF7"/>
<ellipse cx="0.804499" cy="24.7106" rx="0.804499" ry="0.832557" fill="#9BDEF7"/>
<ellipse cx="5.12286" cy="6.83256" rx="0.804499" ry="0.832559" fill="#9BDEF7"/>
<ellipse cx="5.12286" cy="11.3019" rx="0.804499" ry="0.832559" fill="#9BDEF7"/>
<ellipse cx="5.12286" cy="15.7708" rx="0.804499" ry="0.83256" fill="#9BDEF7"/>
<ellipse cx="5.12286" cy="20.2411" rx="0.804499" ry="0.832557" fill="#9BDEF7"/>
<ellipse cx="5.12286" cy="24.7106" rx="0.804499" ry="0.832557" fill="#9BDEF7"/>
<ellipse cx="9.44219" cy="6.83256" rx="0.804499" ry="0.832559" fill="#9BDEF7"/>
<ellipse cx="9.44219" cy="11.3019" rx="0.804499" ry="0.832559" fill="#9BDEF7"/>
<ellipse cx="9.44219" cy="15.7708" rx="0.804499" ry="0.83256" fill="#9BDEF7"/>
<ellipse cx="9.44219" cy="20.2411" rx="0.804499" ry="0.832557" fill="#9BDEF7"/>
<ellipse cx="9.44219" cy="24.7106" rx="0.804499" ry="0.832557" fill="#9BDEF7"/>
<ellipse cx="13.7606" cy="6.83256" rx="0.804499" ry="0.832559" fill="#9BDEF7"/>
<ellipse cx="13.7606" cy="11.3019" rx="0.804499" ry="0.832559" fill="#9BDEF7"/>
<ellipse cx="13.7606" cy="15.7708" rx="0.804499" ry="0.83256" fill="#9BDEF7"/>
<ellipse cx="13.7606" cy="20.2411" rx="0.804499" ry="0.832557" fill="#9BDEF7"/>
<ellipse cx="13.7606" cy="24.7106" rx="0.804499" ry="0.832557" fill="#9BDEF7"/>
<ellipse cx="18.0794" cy="6.83256" rx="0.8045" ry="0.832559" fill="#9BDEF7"/>
<ellipse cx="18.0794" cy="11.3019" rx="0.8045" ry="0.832559" fill="#9BDEF7"/>
<ellipse cx="18.0794" cy="15.7708" rx="0.8045" ry="0.83256" fill="#9BDEF7"/>
<ellipse cx="18.0794" cy="20.2411" rx="0.8045" ry="0.832557" fill="#9BDEF7"/>
<ellipse cx="18.0794" cy="24.7106" rx="0.8045" ry="0.832557" fill="#9BDEF7"/>
<path d="M19.7393 89.7307C19.9845 88.333 20.8983 87.9449 21.4778 87.9316C20.1179 87.9316 19.7522 86.7322 19.7393 86.1325C19.7393 87.5398 18.5803 87.9183 18.0009 87.9316C19.3607 87.9316 19.7264 89.131 19.7393 89.7307Z" fill="#54BFF4"/>
<path fill-rule="evenodd" clip-rule="evenodd" d="M21.7379 87.9286C21.7395 88.0761 21.6261 88.1974 21.4835 88.2007C21.2431 88.2062 20.9267 88.2904 20.6453 88.5225C20.3681 88.7511 20.1078 89.137 19.9953 89.7787C19.9714 89.9147 19.852 90.0099 19.7189 89.999C19.5858 89.9882 19.4822 89.8748 19.4792 89.7366C19.4737 89.4788 19.3901 89.0856 19.1647 88.7644C18.9485 88.4563 18.5939 88.2008 18.0009 88.2008C17.8583 88.2008 17.7423 88.0821 17.7407 87.9346C17.7392 87.7871 17.8526 87.6657 17.9951 87.6624C18.2442 87.6567 18.6242 87.5702 18.9345 87.3369C19.2323 87.1132 19.4792 86.7462 19.4792 86.1325C19.4792 85.985 19.5939 85.8649 19.7364 85.8633C19.879 85.8617 19.9962 85.979 19.9994 86.1265C20.0049 86.3843 20.0885 86.7776 20.3139 87.0987C20.5301 87.4069 20.8847 87.6624 21.4778 87.6624C21.6203 87.6624 21.7363 87.7811 21.7379 87.9286ZM20.81 88.1002C20.4655 88.2705 20.1227 88.5878 19.9059 89.1305C19.8358 89.3061 19.7789 89.5053 19.7393 89.7307C19.7357 89.5617 19.704 89.3451 19.6301 89.1212C19.4942 88.7099 19.2154 88.2737 18.7049 88.062C18.5068 87.9799 18.2739 87.9316 18.0009 87.9316C18.1925 87.9272 18.4475 87.8828 18.703 87.7746C19.065 87.6212 19.428 87.3394 19.6132 86.8611C19.6926 86.6561 19.7393 86.415 19.7393 86.1325C19.7436 86.3308 19.7864 86.5947 19.891 86.8591C20.0419 87.2404 20.3212 87.6227 20.7984 87.8111C20.9911 87.8871 21.216 87.9316 21.4778 87.9316C21.2807 87.9361 21.0449 87.984 20.81 88.1002Z" fill="#54BFF4"/>
<path d="M81.6895 10.91C81.9347 9.51231 82.8485 9.12423 83.428 9.11091C82.0681 9.11091 81.7024 7.91151 81.6895 7.31182C81.6895 8.71911 80.5305 9.09758 79.9511 9.11091C81.3109 9.11091 81.6766 10.3103 81.6895 10.91Z" fill="#54BFF4"/>
<path fill-rule="evenodd" clip-rule="evenodd" d="M83.6881 9.10791C83.6897 9.25541 83.5763 9.37676 83.4338 9.38004C83.1933 9.38557 82.8769 9.46977 82.5955 9.70184C82.3183 9.93041 82.058 10.3164 81.9455 10.9581C81.9216 11.094 81.8022 11.1892 81.6691 11.1784C81.536 11.1675 81.4324 11.0541 81.4294 10.916C81.4239 10.6581 81.3403 10.2649 81.1149 9.94375C80.8987 9.63561 80.5441 9.3801 79.9511 9.3801C79.8085 9.3801 79.6925 9.26139 79.6909 9.11389C79.6894 8.96639 79.8028 8.84504 79.9453 8.84176C80.1944 8.83603 80.5744 8.74951 80.8847 8.51626C81.1825 8.29249 81.4294 7.92553 81.4294 7.31181C81.4294 7.1643 81.5441 7.04426 81.6866 7.04262C81.8292 7.04098 81.9464 7.15835 81.9496 7.30583C81.9551 7.56365 82.0387 7.95688 82.2641 8.27805C82.4803 8.58619 82.8349 8.84169 83.428 8.84169C83.5705 8.84169 83.6865 8.9604 83.6881 9.10791ZM82.7602 9.27951C82.4157 9.44987 82.0729 9.76708 81.8561 10.3099C81.786 10.4854 81.7291 10.6846 81.6895 10.91C81.6859 10.741 81.6542 10.5245 81.5803 10.3005C81.4444 9.88923 81.1656 9.45307 80.6551 9.24137C80.457 9.15924 80.2241 9.11091 79.9511 9.11091C80.1427 9.1065 80.3977 9.06215 80.6532 8.95388C81.0152 8.80048 81.3782 8.51873 81.5634 8.04039C81.6428 7.83542 81.6895 7.59436 81.6895 7.31182C81.6938 7.51013 81.7366 7.77402 81.8412 8.03844C81.9921 8.41969 82.2714 8.80201 82.7486 8.9904C82.9413 9.06645 83.1662 9.11091 83.428 9.11091C83.2309 9.11544 82.9951 9.16331 82.7602 9.27951Z" fill="#54BFF4"/>
<path d="M9.0708 65.9609C9.21888 65.9609 9.3394 66.0801 9.3411 66.2282C9.34281 66.3762 9.22506 66.4981 9.07702 66.5015C8.5963 66.5126 7.96839 66.68 7.40922 67.1411C6.85389 67.5991 6.34848 68.3615 6.13213 69.5947C6.1081 69.7317 5.98402 69.8281 5.84533 69.8175C5.70663 69.8069 5.5986 69.6928 5.59562 69.5538C5.58462 69.0414 5.42068 68.2678 4.97335 67.6303C4.53541 67.0062 3.82016 66.5016 2.66095 66.5016C2.51287 66.5016 2.39235 66.3824 2.39065 66.2344C2.38895 66.0863 2.5067 65.9644 2.65474 65.961C3.14484 65.9497 3.88805 65.7816 4.50162 65.3205C5.10254 64.8689 5.59556 64.1253 5.59556 62.9146C5.59556 62.7664 5.71482 62.6458 5.86298 62.6443C6.01113 62.6427 6.13296 62.7606 6.13614 62.9088C6.14714 63.4211 6.31107 64.1948 6.75841 64.8322C7.19635 65.4563 7.91159 65.9609 9.0708 65.9609Z" fill="#54BFF4" stroke="#54BFF4" stroke-width="0.540643" stroke-linejoin="round"/>
<path d="M96 27.4063C96.1481 27.4063 96.2686 27.5254 96.2703 27.6735C96.272 27.8215 96.1543 27.9434 96.0062 27.9468C95.5255 27.9579 94.8976 28.1253 94.3384 28.5864C93.7831 29.0444 93.2777 29.8068 93.0613 31.04C93.0373 31.177 92.9132 31.2734 92.7745 31.2628C92.6358 31.2523 92.5278 31.1382 92.5248 30.9991C92.5138 30.4867 92.3499 29.7131 91.9025 29.0756C91.4646 28.4516 90.7494 27.9469 89.5901 27.9469C89.4421 27.9469 89.3215 27.8278 89.3198 27.6797C89.3181 27.5316 89.4359 27.4097 89.5839 27.4063C90.074 27.3951 90.8172 27.227 91.4308 26.7658C92.0317 26.3142 92.5248 25.5706 92.5248 24.3599C92.5248 24.2117 92.644 24.0912 92.7922 24.0896C92.9403 24.088 93.0622 24.2059 93.0653 24.3541C93.0763 24.8664 93.2403 25.6401 93.6876 26.2775C94.1255 26.9016 94.8408 27.4063 96 27.4063Z" fill="#54BFF4" stroke="#54BFF4" stroke-width="0.540643" stroke-linejoin="round"/>
<path d="M25.6723 57.02C24.5191 54.5415 23.8982 52.063 23.4547 50.2271C22.9409 48.0115 22.5924 45.796 22.4093 43.4979C22.3962 43.3336 22.3602 43.1717 22.3357 43.0088C22.3015 42.7819 22.3015 42.5329 22.3015 42.3325C22.3015 42.1438 22.3015 41.9119 22.3015 41.696C22.3015 41.5582 22.1657 41.4614 22.0354 41.5064V41.5064C21.0597 41.7817 19.8178 42.0571 18.2212 42.8833C17.1567 43.4341 16.0036 43.9849 15.0279 45.27C14.0521 46.4634 13.5199 47.9321 13.3425 49.6763C13.0764 52.7056 14.3182 54.9087 14.9392 56.0103C15.6488 57.2037 16.5358 58.6724 18.3099 59.4986C19.6404 60.0494 20.7936 59.9576 21.9467 59.8658C23.0111 59.774 23.7208 59.5904 24.4304 59.315C24.8027 59.2049 25.1431 59.0948 25.5664 59.0045C26.0141 58.909 26.2684 58.3892 26.1428 57.9489V57.9489C26.1241 57.8831 26.0968 57.8169 26.0599 57.7593C25.902 57.5129 25.7516 57.2665 25.6723 57.02Z" fill="url(#paint0_linear_16314_127584)"/>
<path d="M56.1572 18.7614C56.1274 18.7057 56.0521 18.6953 56.0082 18.7407V18.7407L55.3873 19.3833C55.0325 19.7505 54.7664 20.1177 54.4116 20.3931C52.6375 22.1372 50.8634 23.8814 49.0006 25.5337C46.6944 27.645 44.7429 29.3892 41.8157 31.4087C39.9529 32.6939 38.2676 33.6118 34.8968 35.5396C32.5019 36.8247 30.9939 37.7427 28.7763 38.7525L27.978 39.1196C27.3529 39.4182 26.7799 39.6898 26.2591 39.9345C25.5238 40.2798 25.0508 41.0171 25.0508 41.8294V42.5162C25.2282 44.9029 25.583 47.2896 26.1152 49.5845C26.6474 51.6959 27.2684 54.358 28.5989 56.9283C28.7763 57.2037 28.9537 57.5709 29.1311 57.8463C29.1799 57.9219 29.2286 58.0045 29.2792 58.0902C29.5486 58.5467 30.0468 58.782 30.5769 58.787C32.3234 58.8035 34.2767 58.6343 36.4935 58.397C39.0659 58.1216 42.0818 57.8463 45.2751 57.8463C50.5718 57.8463 59.102 60.1192 63.782 61.2092C65.0134 61.496 66.1467 60.572 66.1394 59.3076C66.097 51.9373 65.1227 44.5817 63.2819 37.3755C61.6956 30.8089 59.2337 24.5142 56.1572 18.7614Z" fill="url(#paint1_linear_16314_127584)"/>
<path d="M72.6845 19.5666C71.9749 19.1995 71.2653 19.5667 70.9105 20.2092C70.5557 20.9436 70.9105 21.678 71.5314 22.0452C77.7406 25.0745 81.7323 31.9592 81.7323 39.6702C81.7323 43.6175 80.7565 47.1975 78.8938 50.3186C78.5647 50.9147 78.6934 51.6686 79.2093 52.141C79.2907 52.2155 79.3856 52.2742 79.4882 52.3148C79.6499 52.3789 79.8484 52.43 80.0469 52.43C80.4904 52.43 80.9339 52.1546 81.2 51.7874C83.3289 48.2073 84.3934 44.0764 84.3934 39.6702C84.3934 30.9495 79.7808 23.0549 72.6845 19.5666Z" fill="url(#paint2_linear_16314_127584)"/>
<path d="M70.2005 25.9926C69.5444 25.7379 68.8883 25.9542 68.5126 26.4962C68.4506 26.5856 68.4054 26.686 68.3778 26.7913C68.1999 27.4718 68.4705 28.1299 69.0474 28.4711C72.9503 30.307 75.5227 34.8051 75.5227 39.6703C75.5227 42.516 74.6357 45.2699 73.1278 47.3813C72.6842 48.0238 72.7729 48.85 73.3939 49.309C73.66 49.4926 73.9261 49.5844 74.1922 49.5844C74.6357 49.5844 74.9905 49.4008 75.2566 49.0336C77.1194 46.4633 78.1838 43.1586 78.1838 39.6703C78.2725 33.7035 75.1679 28.3793 70.2005 25.9926Z" fill="url(#paint3_linear_16314_127584)"/>
<path d="M50.8025 76.9364C50.7823 76.8171 50.7569 76.6984 50.7138 76.5853C50.6173 76.3319 50.4743 76.0072 50.3313 75.5632C50.2426 75.2879 50.0652 74.9207 49.9765 74.5535C48.912 71.4324 49.0007 70.6062 49.0007 70.239C49.0007 69.5965 49.1781 69.0457 49.5329 67.7605C49.7103 67.1179 49.799 66.6589 49.9765 66.1999C50.2426 65.3738 50.5087 64.7312 50.5974 63.905C50.5974 63.6296 50.5974 63.2625 50.5974 62.8953C50.5974 62.6828 50.578 62.4604 50.5456 62.2345C50.4261 61.4001 49.6969 60.8036 48.8573 60.7286C47.8988 60.6431 47.0098 60.6003 46.1622 60.6003C42.9689 60.6003 39.953 60.8757 37.3806 61.1511C35.399 61.3632 33.628 61.5209 32.027 61.5402C31.4319 61.5474 31.0446 62.2001 31.3488 62.7117V62.7117C31.4375 62.8953 31.7923 63.7214 32.3245 64.9148C34.276 69.4128 38.445 79.1433 39.5095 80.7039C40.84 82.6316 41.9045 83.1824 42.6141 83.4578C43.235 83.7332 43.8559 83.825 44.5656 83.825C45.3639 83.825 46.1622 83.6414 47.0492 83.2742C49.1781 82.448 50.5087 81.0711 50.9522 79.4187C51.0409 79.0515 51.0409 78.6843 51.0409 78.3172C51.0409 77.9021 50.8958 77.4871 50.8025 76.9364Z" fill="url(#paint4_linear_16314_127584)"/>
<path d="M59.9115 15.8948C59.5567 15.2522 58.7583 14.9768 58.1374 15.344C57.5165 15.7112 57.2504 16.5374 57.6052 17.18C60.7985 23.1468 63.3709 29.5726 65.145 36.4573C67.3626 44.8109 68.2496 53.4398 67.8948 62.0687C67.8948 62.7725 68.3837 63.3921 69.049 63.5232C69.056 63.5246 69.2182 63.5375 69.2253 63.5375V63.5375C69.9349 63.5375 70.5559 62.9867 70.5559 62.2523C70.9107 53.4398 69.9349 44.5355 67.7174 35.9066C65.8546 28.6546 63.2822 22.0452 59.9115 15.8948Z" fill="url(#paint5_linear_16314_127584)"/>
</g>
<defs>
<linearGradient id="paint0_linear_16314_127584" x1="10.7801" y1="38.109" x2="32.3119" y2="42.2472" gradientUnits="userSpaceOnUse">
<stop stop-color="#FFCBB5"/>
<stop offset="1" stop-color="#ED1C24"/>
</linearGradient>
<linearGradient id="paint1_linear_16314_127584" x1="17.2209" y1="10.9648" x2="82.1738" y2="27.6139" gradientUnits="userSpaceOnUse">
<stop stop-color="#FFCBB5"/>
<stop offset="1" stop-color="#ED1C24"/>
</linearGradient>
<linearGradient id="paint2_linear_16314_127584" x1="68.1735" y1="13.5292" x2="90.8456" y2="16.0424" gradientUnits="userSpaceOnUse">
<stop stop-color="#FFCBB5"/>
<stop offset="1" stop-color="#ED1C24"/>
</linearGradient>
<linearGradient id="paint3_linear_16314_127584" x1="66.4445" y1="21.6565" x2="82.853" y2="23.4904" gradientUnits="userSpaceOnUse">
<stop stop-color="#FFCBB5"/>
<stop offset="1" stop-color="#ED1C24"/>
</linearGradient>
<linearGradient id="paint4_linear_16314_127584" x1="26.7515" y1="56.4552" x2="59.3082" y2="64.1361" gradientUnits="userSpaceOnUse">
<stop stop-color="#FFCBB5"/>
<stop offset="1" stop-color="#ED1C24"/>
</linearGradient>
<linearGradient id="paint5_linear_16314_127584" x1="54.9347" y1="6.54856" x2="77.0206" y2="8.16532" gradientUnits="userSpaceOnUse">
<stop stop-color="#FFCBB5"/>
<stop offset="1" stop-color="#ED1C24"/>
</linearGradient>
<clipPath id="clip0_16314_127584">
<rect width="96" height="96" fill="white"/>
</clipPath>
</defs>
</svg>
