<?xml version="1.0" encoding="UTF-8" standalone="no"?><!DOCTYPE svg PUBLIC "-//W3C//DTD SVG 1.1//EN" "http://www.w3.org/Graphics/SVG/1.1/DTD/svg11.dtd"><svg width="100%" height="100%" viewBox="0 0 347 128" version="1.1" xmlns="http://www.w3.org/2000/svg" xmlns:xlink="http://www.w3.org/1999/xlink" xml:space="preserve" xmlns:serif="http://www.serif.com/" style="fill-rule:evenodd;clip-rule:evenodd;stroke-linejoin:round;stroke-miterlimit:2;"><rect id="Artboard2" x="0" y="0" width="346.638" height="127.388" style="fill:none;"/><g><path d="M149.806,99.309c1.201,0.763 2.606,1.201 4.509,1.201c2.52,0 4.597,-1.29 4.597,-4.186c0,-4.014 -9.368,-4.51 -9.368,-9.869c0,-3.278 2.868,-5.329 6.47,-5.329c0.996,0 2.604,0.147 4.01,0.674l-0.322,1.845c-0.906,-0.5 -2.34,-0.762 -3.717,-0.762c-2.109,0 -4.422,0.878 -4.422,3.514c0,4.099 9.369,4.128 9.369,10.103c0,4.125 -3.542,5.767 -6.704,5.767c-1.991,0 -3.544,-0.41 -4.626,-0.879l0.204,-2.079Z" style="fill:#003974;fill-rule:nonzero;"/><path d="M174.81,101.445c-1.288,0.529 -2.958,0.822 -4.333,0.822c-4.948,0 -6.794,-3.339 -6.794,-7.818c0,-4.567 2.519,-7.819 6.296,-7.819c4.217,0 5.943,3.396 5.943,7.409l0,0.936l-10.218,0c0,3.161 1.699,5.71 4.92,5.71c1.345,0 3.307,-0.555 4.186,-1.112l0,1.872Zm-0.907,-8.051c0,-2.604 -1.055,-5.181 -3.808,-5.181c-2.722,0 -4.391,2.721 -4.391,5.181l8.199,0Z" style="fill:#003974;fill-rule:nonzero;"/><path d="M189.156,88.974c-0.995,-0.439 -2.196,-0.762 -3.192,-0.762c-3.601,0 -5.621,2.606 -5.621,6.237c0,3.396 2.049,6.237 5.416,6.237c1.172,0 2.255,-0.264 3.368,-0.675l0.175,1.729c-1.259,0.439 -2.43,0.525 -3.836,0.525c-4.801,0 -7.144,-3.658 -7.144,-7.816c0,-4.598 2.958,-7.818 7.379,-7.818c1.786,0 3.075,0.41 3.601,0.586l-0.146,1.757Z" style="fill:#003974;fill-rule:nonzero;"/><path d="M204.088,98.4c0,1.143 0,2.315 0.116,3.514l-1.786,0l0,-2.664l-0.058,0c-0.614,1.348 -1.728,3.017 -4.832,3.017c-3.688,0 -5.093,-2.459 -5.093,-5.74l0,-9.546l1.844,0l0,9.079c0,2.811 0.996,4.625 3.543,4.625c3.367,0 4.42,-2.957 4.42,-5.445l0,-8.259l1.846,0l0,11.419Z" style="fill:#003974;fill-rule:nonzero;"/><path d="M208.712,90.321c0,-1.642 0,-2.257 -0.116,-3.339l1.844,0l0,2.869l0.058,0c0.674,-1.67 1.933,-3.22 3.837,-3.22c0.438,0 0.965,0.087 1.287,0.175l0,1.932c-0.38,-0.117 -0.878,-0.175 -1.347,-0.175c-2.928,0 -3.719,3.281 -3.719,5.974l0,7.379l-1.844,0l0,-11.595Z" style="fill:#003974;fill-rule:nonzero;"/><path d="M220.307,83.001l-1.844,0l0,-2.459l1.844,0l0,2.459Zm-1.845,3.981l1.843,0l0,14.934l-1.843,0l0,-14.934Z" style="fill:#003974;fill-rule:nonzero;"/><path d="M231.403,88.564l-3.397,0l0,9.66c0,1.349 0.498,2.462 1.991,2.462c0.702,0 1.172,-0.149 1.698,-0.351l0.117,1.521c-0.44,0.176 -1.346,0.409 -2.254,0.409c-3.28,0 -3.398,-2.254 -3.398,-4.975l0,-8.726l-2.927,0l0,-1.583l2.927,0l0,-3.599l1.846,-0.646l0,4.245l3.397,0l0,1.583Z" style="fill:#003974;fill-rule:nonzero;"/><path d="M236.554,83.001l-1.844,0l0,-2.459l1.844,0l0,2.459Zm-1.844,3.981l1.844,0l0,14.934l-1.844,0l0,-14.934Z" style="fill:#003974;fill-rule:nonzero;"/><path d="M251.223,101.445c-1.288,0.529 -2.958,0.822 -4.333,0.822c-4.948,0 -6.793,-3.339 -6.793,-7.818c0,-4.567 2.518,-7.819 6.295,-7.819c4.217,0 5.943,3.396 5.943,7.409l0,0.936l-10.218,0c0,3.161 1.699,5.71 4.92,5.71c1.346,0 3.307,-0.555 4.186,-1.112l0,1.872Zm-0.908,-8.051c0,-2.604 -1.054,-5.181 -3.807,-5.181c-2.722,0 -4.391,2.721 -4.391,5.181l8.198,0Z" style="fill:#003974;fill-rule:nonzero;"/><path d="M254.706,99.748c1.112,0.556 2.46,0.938 3.893,0.938c1.758,0 3.31,-0.966 3.31,-2.665c0,-3.545 -7.173,-2.986 -7.173,-7.319c0,-2.959 2.4,-4.071 4.859,-4.071c0.791,0 2.372,0.175 3.69,0.674l-0.176,1.611c-0.967,-0.44 -2.284,-0.704 -3.307,-0.704c-1.904,0 -3.223,0.585 -3.223,2.49c0,2.782 7.351,2.429 7.351,7.319c0,3.16 -2.958,4.244 -5.213,4.244c-1.435,0 -2.87,-0.175 -4.186,-0.703l0.175,-1.814Z" style="fill:#003974;fill-rule:nonzero;"/><path d="M200.653,72.347c11.034,0 19.433,-6.414 19.433,-17.443c0,-11.096 -8.399,-17.511 -19.433,-17.511c-11.03,0 -19.434,6.415 -19.434,17.511c0,11.029 8.404,17.443 19.434,17.443m0,-8.079c-5.325,0 -7.504,-4.424 -7.504,-9.364c0,-5.003 2.179,-9.429 7.504,-9.429c5.323,0 7.504,4.426 7.504,9.429c0,4.94 -2.181,9.364 -7.504,9.364" style="fill:#ed1d24;fill-rule:nonzero;"/><path d="M219.028,46.247l6.603,0l0,13.596c0,7.949 2.504,12.504 12.83,12.504c2.885,0 5.065,-0.381 7.244,-0.642l-0.383,-7.504c-1.154,0.192 -2.373,0.453 -3.526,0.453c-3.659,0 -4.619,-2.056 -4.619,-6.095l0,-12.312l8.083,0l0,-8.084l-8.083,0l-0.007,-11.555l-11.344,4.051l0,7.504l-6.798,0l0,8.084Z" style="fill:#ed1d24;fill-rule:nonzero;"/><path d="M285.657,71.579l11.545,0l0,-16.549l0.128,0l9.235,16.549l13.982,0l-12.571,-18.085l11.61,-15.329l-12.637,0l-9.619,14.045l-0.128,0l0,-25.56l-11.545,4l0,40.929Z" style="fill:#ed1d24;fill-rule:nonzero;"/><path d="M150.484,71.579l11.545,0l0,-16.549l0.128,0l9.234,16.549l13.981,0l-12.57,-18.085l11.609,-15.329l-12.635,0l-9.619,14.045l-0.128,0l0,-25.56l-11.545,3.81l0,41.119Z" style="fill:#ed1d24;fill-rule:nonzero;"/><path d="M281.56,71.737c-0.519,-2.661 -0.649,-5.323 -0.649,-7.983l0,-12.592c0,-10.319 -7.465,-14.02 -16.099,-14.02c-4.999,0 -9.346,0.712 -13.501,2.401l0.194,7.918c3.246,-1.817 7.011,-2.532 10.776,-2.532c4.219,0 7.661,1.234 7.724,5.841c-1.493,-0.258 -3.57,-0.451 -5.452,-0.451c-6.232,0 -17.461,1.231 -17.461,11.55c0,7.338 5.971,10.646 12.659,10.646c4.802,0 8.047,-1.88 10.709,-6.101l0.13,0c0,1.755 0.192,3.509 0.257,5.323l10.713,0Zm-23.564,-10.707c0,-3.249 3.117,-4.48 7.077,-4.48c1.753,0 3.439,0.128 4.932,0.193c0,3.958 -2.79,7.986 -7.204,7.986c-2.728,0 -4.805,-1.366 -4.805,-3.699" style="fill:#ed1d24;fill-rule:nonzero;"/><path d="M27.302,63.694c0,-26.85 25.31,-48.618 56.53,-48.618c31.22,0 56.527,21.768 56.527,48.618c0,26.85 -25.307,48.616 -56.527,48.616c-31.22,0 -56.53,-21.766 -56.53,-48.616" style="fill:#003974;fill-rule:nonzero;"/><path d="M76.969,30.803l13.131,-4.34l0.067,70.997l-13.246,4.439l0.048,-71.096Z" style="fill:#ed1d24;fill-rule:nonzero;"/><path d="M126.341,68.705c-1.23,10.162 -6.925,20.416 -19.365,20.437c-7.263,0.013 -12.937,-4.958 -16.862,-11.045l0,-7.044c4.916,2.442 9.509,5.06 15.082,5.14c6.871,0.103 13.078,-2.54 15.646,-7.488l5.499,0Zm-41.579,6.377c-5.707,6.877 -11.221,13.906 -21.554,13.906c-14.593,0 -21.514,-14.109 -21.514,-25.907c0,-11.337 5.411,-24.756 19.626,-24.756c6.165,0 12.106,3.774 15.642,7.764l-0.009,9.622c-2.956,-1.988 -9.579,-3.941 -13.905,-4.015c-9.012,-0.15 -16.964,3.759 -16.823,12.655c0.095,6.129 6.162,10.295 12.202,10.295c9.253,0 14.854,-8.449 19.539,-14.864c1.309,-1.678 4.993,-6.606 5.567,-7.395c5.201,-7.269 11.222,-13.905 21.555,-13.905c12.17,0 19.002,9.809 20.938,19.911l-5.49,0c-2.209,-3.273 -6.46,-5.279 -10.65,-5.279c-9.562,0 -15.276,8.799 -20.058,15.276c0,0 -3.718,5.07 -5.066,6.692" style="fill:#fff;fill-rule:nonzero;"/></g></svg>