<?xml version="1.0" encoding="utf-8"?>
<!-- Generator: Adobe Illustrator 19.0.0, SVG Export Plug-In . SVG Version: 6.00 Build 0)  -->
<svg version="1.1" id="Capa_1" xmlns="http://www.w3.org/2000/svg" xmlns:xlink="http://www.w3.org/1999/xlink" x="0px" y="0px"
	 viewBox="-49 141 512 512" style="enable-background:new -49 141 512 512;" xml:space="preserve">
<style type="text/css">
	.st0{fill:none;}
</style>
<g>
	<path class="st0" d="M94.1,429.3c-17.8,0-32.3-14.4-32.3-32.3s14.4-32.3,32.3-32.3s32.3,14.4,32.3,32.3S111.9,429.3,94.1,429.3z
		 M207,429.3c-17.8,0-32.3-14.4-32.3-32.3s14.4-32.3,32.3-32.3c17.8,0,32.3,14.4,32.3,32.3S224.8,429.3,207,429.3z M319.9,429.3
		c-17.8,0-32.3-14.4-32.3-32.3s14.4-32.3,32.3-32.3c17.8,0,32.3,14.4,32.3,32.3S337.7,429.3,319.9,429.3z"/>
	<path d="M207,142C66.4,142-48,256.4-48,397S66.4,652,207,652s255-114.4,255-255S347.6,142,207,142z M368.8,558.8
		c-43.2,43.2-100.7,67-161.8,67S88.4,602,45.2,558.8C2,515.6-21.8,458.1-21.8,397S2,278.4,45.2,235.2s100.7-67,161.8-67
		s118.6,23.8,161.8,67c43.2,43.2,67,100.7,67,161.8S412,515.6,368.8,558.8z"/>
	<circle cx="207" cy="397" r="32.3"/>
	<circle cx="319.9" cy="397" r="32.3"/>
	<circle cx="94.1" cy="397" r="32.3"/>
</g>
</svg>
