<?xml version="1.0" encoding="utf-8"?>
<!-- Generator: Adobe Illustrator 19.0.0, SVG Export Plug-In . SVG Version: 6.00 Build 0)  -->
<svg version="1.1" id="Layer_1" xmlns="http://www.w3.org/2000/svg" xmlns:xlink="http://www.w3.org/1999/xlink" x="0px" y="0px"
	 viewBox="0 0 100 100" style="enable-background:new 0 0 100 100;" xml:space="preserve">
<g id="XMLID_3_">
	<path id="XMLID_2_" fill="#FFFFFF" d="M87.4,25.8v64.7c0,2.6-0.9,4.8-2.7,6.6s-4,2.7-6.6,2.7H21.9c-2.6,0-4.8-0.9-6.6-2.7s-2.7-4-2.7-6.6V9.5
		c0-2.6,0.9-4.8,2.7-6.6s4-2.7,6.6-2.7h39.8c2.6,0,4.8,0.9,6.6,2.7l16.4,16.4C86.5,21,87.4,23.2,87.4,25.8z M78.1,90.5V34.4H57.8
		c-1.3,0-2.4-0.5-3.3-1.4s-1.4-2-1.4-3.3V9.5H21.9v81.1H78.1z M71.8,65.5c0,1.2-0.4,2.3-1.1,3.2c-0.7,0.9-1.8,1.4-3.3,1.4
		s-3.2-0.3-5.3-0.9c-2-0.6-3.9-1.4-5.7-2.4c-2.3,0.4-6,1.4-10.9,3.1l-2.3,0.8c-2.3,3.9-4.5,6.8-6.6,8.6c-1.7,1.4-3.2,2.1-4.6,1.9
		c-1.4-0.1-2.4-0.7-3-1.7c-0.6-1-0.9-1.9-0.8-2.8c0.6-2.9,4-5.8,9.9-9c2.1-3.6,4.4-8.4,7-14.4c-1.7-6.2-2.1-10.6-1.4-13.1
		c0.3-1.2,1-2,2.3-2.4c1.3-0.5,2.5-0.4,3.7,0.2c1.2,0.6,1.9,1.7,2.1,3.4c0.6,1.8,0.3,5.3-1,10.5v0.2c1.6,4.2,4,7.2,7.2,9.2
		c6.6-0.9,10.8-0.5,12.5,1.2C71.4,63.3,71.8,64.3,71.8,65.5z M32.8,77.3c0.5-0.4,1.2-1,1.9-1.9c1-1.2,2.1-2.7,3.3-4.5l-0.8,0.6
		c-3,2.6-4.7,4.7-5.3,6.2C32.1,77.8,32.3,77.7,32.8,77.3z M45.5,66.2c3.5-1.4,6.3-2.3,8.4-2.7c-2.3-1.7-4.3-4-5.8-7
		c-1.7,4.5-3.3,8.1-4.9,10.7L45.5,66.2z M47.7,43.6c0,2.1,0.3,3.7,0.8,4.9c0.4-0.9,0.6-2.5,0.6-4.7c0-2.2-0.3-3.3-1-3.3
		C47.8,40.4,47.7,41.5,47.7,43.6z M68.8,65.5c-0.3-0.3-1.1-0.6-2.2-0.8s-2.8-0.2-4.9-0.1c1.8,0.8,3.4,1.3,4.7,1.6
		c0.9,0.3,1.6,0.3,1.9,0.2c0.3,0,0.5-0.1,0.6-0.2C69.2,66,69.1,65.8,68.8,65.5z M62.5,10.2v14.8h14.8L62.5,10.2z"/>
</g>
</svg>
