<?xml version="1.0" encoding="utf-8"?>
<!-- Generator: Adobe Illustrator 19.0.0, SVG Export Plug-In . SVG Version: 6.00 Build 0)  -->
<svg version="1.1" id="Layer_1" xmlns="http://www.w3.org/2000/svg" xmlns:xlink="http://www.w3.org/1999/xlink" x="0px" y="0px"
	 viewBox="0 0 100 100" style="enable-background:new 0 0 100 100;" xml:space="preserve">
<style type="text/css">
	.st0{fill:#575757;}
</style>
<g id="XMLID_2_">
	<path id="XMLID_12_" class="st0" d="M93.1,25.1c-4.5-7.6-10.5-13.7-18.2-18.2S59,0.2,50,0.2S32.7,2.4,25.1,6.9S11.4,17.5,6.9,25.1
		S0.2,41,0.2,50s2.2,17.3,6.7,24.9s10.5,13.7,18.2,18.2S41,99.8,50,99.8s17.3-2.2,24.9-6.7s13.7-10.5,18.2-18.2S99.8,59,99.8,50
		S97.6,32.7,93.1,25.1z M84.7,70.1c-3.6,6.2-8.5,11-14.7,14.7S57.2,90.2,50,90.2s-13.9-1.8-20.1-5.4s-11-8.5-14.7-14.7
		S9.8,57.2,9.8,50s1.8-13.9,5.4-20.1s8.5-11,14.7-14.7S42.8,9.8,50,9.8s13.9,1.8,20.1,5.4s11,8.5,14.7,14.7s5.4,12.9,5.4,20.1
		S88.4,63.9,84.7,70.1z"/>
</g>
</svg>
