<?xml version="1.0" encoding="utf-8"?>
<!-- Generator: Adobe Illustrator 19.0.0, SVG Export Plug-In . SVG Version: 6.00 Build 0)  -->
<svg version="1.2" baseProfile="tiny" id="Layer_1" xmlns="http://www.w3.org/2000/svg" xmlns:xlink="http://www.w3.org/1999/xlink"
	 x="0px" y="0px" viewBox="0 0 100 100" xml:space="preserve">
<g>
	<path id="XMLID_3_" d="M50.5,0.8c0,3.8,0,7.6,0,11.4c0,12.3,0,24.6,0,36.8c0,0.2,0,0.4,0,0.7c-0.2,0-0.4,0-0.6,0
		c-16,0-31.9,0-47.9,0c-0.2,0-0.3,0-0.5,0c0-0.7,0-1.4,0-2.2c0-0.2,0.1-0.4,0.1-0.6c0.2-1.9,0.3-3.8,0.6-5.6
		c1.8-10.1,6.3-18.8,13.5-26C24.3,6.8,34.6,2,46.6,1c0.7-0.1,1.5-0.1,2.2-0.2C49.4,0.8,49.9,0.8,50.5,0.8z"/>
	<path d="M51,99.2c-0.7-0.1-1.5-0.1-2.2-0.2c-8.4-0.7-16-3.5-22.9-8.4C16.7,84,10.7,75.1,8,64.1c-0.6-2.3-0.8-4.7-1.2-7.1
		c0-0.2,0-0.4,0-0.7c16.2,0,32.5,0,48.8,0c0-16.3,0-32.5,0-48.8c1.2,0.1,2.4,0.2,3.6,0.4c6.3,0.9,12.1,3,17.5,6.4
		c10.7,6.8,17.5,16.3,20.5,28.6c0.6,2.5,1,5.1,1.1,7.8c0,0.2,0.1,0.4,0.1,0.5c0,1.4,0,2.8,0,4.2c0,0.2-0.1,0.4-0.1,0.6
		c-0.3,2.2-0.4,4.4-0.9,6.5c-2.2,10.3-7.3,19-15.3,25.8c-7.4,6.3-16.1,9.8-25.8,10.7c-0.7,0.1-1.5,0.1-2.2,0.2
		C53.1,99.2,52,99.2,51,99.2z M12.1,61c3.2,18.7,21.4,35.7,44.7,33.4C79.2,92.1,96.5,71.7,93.4,48c-1.5-11.5-7.1-20.7-16.3-27.8
		c-5-3.8-10.7-6.3-16.9-7.5c0,16.1,0,32.1,0,48.2C44.1,61,28.1,61,12.1,61z"/>
</g>
</svg>
