<?xml version="1.0" encoding="utf-8"?>
<!-- Generator: Adobe Illustrator 19.0.0, SVG Export Plug-In . SVG Version: 6.00 Build 0)  -->
<svg version="1.1" id="Layer_1" xmlns="http://www.w3.org/2000/svg" xmlns:xlink="http://www.w3.org/1999/xlink" x="0px" y="0px"
	 viewBox="-9 11 100 100" style="enable-background:new -9 11 100 100;" xml:space="preserve">
<style type="text/css">
	.st0{fill:#575757;}
</style>
<g>
	<path class="st0" d="M-9,62.7c0-1.3,0-2.6,0-3.9c0-0.1,0.1-0.2,0.1-0.3c0.1-2.9,0.5-5.7,1.1-8.5c2.1-9.5,6.7-17.7,13.6-24.6
		c4-3.9,8.5-7.1,13.5-9.5c6.1-2.9,12.4-4.5,19.1-4.8c0.1,0,0.2,0,0.3-0.1c1.3,0,2.6,0,3.9,0c0.1,0,0.2,0,0.3,0.1
		c1.8,0.2,3.6,0.3,5.5,0.6c5.1,0.7,10,2.3,14.6,4.6c5.7,2.8,10.6,6.6,14.8,11.3C86.7,37.7,90.9,49.5,90.4,63c-0.2,4.5-1,9-2.4,13.3
		c-3,8.9-8,16.4-15.2,22.4c-8.8,7.4-19,11.3-30.5,11.7c-4.4,0.2-8.8-0.3-13.2-1.3c-8.9-2.2-16.6-6.4-23.2-12.8
		c-4.6-4.4-8.1-9.6-10.7-15.4C-7.2,75.6-8.5,70-8.9,64.2C-8.9,63.7-8.9,63.2-9,62.7z M40.7,16.7C16.4,16.8-3.2,36.3-3.4,60.5
		C-3.6,85,16,104.5,40,104.9c24.7,0.3,44.5-19.4,44.8-43.5C85.1,36.8,65.3,16.7,40.7,16.7z"/>
	<path id="XMLID_4_" class="st0" d="M40.6,58c6.6,0,13.2,0,19.8,0c1.5,0,2.7,1,2.9,2.5c0.2,1.6-1.1,3.1-2.8,3.1c-0.1,0-0.1,0-0.2,0
		c-13.1,0-26.2,0-39.4,0c-1.2,0-2.2-0.5-2.7-1.6c-0.9-1.9,0.4-4,2.6-4C27.4,58,34,58,40.6,58z"/>
	<path id="XMLID_3_" class="st0" d="M40.6,50.2c-6.6,0-13.3,0-19.9,0c-1.3,0-2.4-0.8-2.7-2c-0.3-1.2,0.1-2.5,1.2-3.1
		c0.5-0.3,1-0.4,1.6-0.4c11.4,0,22.7,0,34.1,0c1.8,0,3.6,0,5.4,0c1.7,0,3,1.2,3,2.8c0,1.8-1.5,2.8-3,2.8
		C53.7,50.2,47.2,50.2,40.6,50.2z"/>
	<path id="XMLID_2_" class="st0" d="M40.6,77c-6.6,0-13.2,0-19.8,0c-1.6,0-2.8-1.2-2.8-2.7c0-1.6,1.1-2.8,2.7-2.9c0.1,0,0.2,0,0.3,0
		c13.1,0,26.2,0,39.3,0c1.3,0,2.2,0.5,2.8,1.6c0.9,1.9-0.5,4-2.6,4C53.8,77,47.2,77,40.6,77z"/>
</g>
</svg>
