<?xml version="1.0" encoding="utf-8"?>
<!-- Generator: Adobe Illustrator 19.0.0, SVG Export Plug-In . SVG Version: 6.00 Build 0)  -->
<svg version="1.1" id="Layer_1" xmlns="http://www.w3.org/2000/svg" xmlns:xlink="http://www.w3.org/1999/xlink" x="0px" y="0px"
	 viewBox="-255 347 100 100" style="enable-background:new -255 347 100 100;" xml:space="preserve">
<style type="text/css">
	.st0{fill:#575757;}
</style>
<g id="XMLID_2_">
	<path id="XMLID_13_" class="st0" d="M-158.1,350.1c-2.1-2.1-4.6-3.1-7.6-3.1h-78.6c-3,0-5.5,1-7.6,3.1c-2.1,2.1-3.1,4.6-3.1,7.6
		v78.6c0,3,1,5.5,3.1,7.6c2.1,2.1,4.6,3.1,7.6,3.1h78.6c3,0,5.5-1,7.6-3.1s3.1-4.6,3.1-7.6v-78.6C-155,354.7-156,352.2-158.1,350.1z
		 M-165.7,436.3h-78.6v-78.6h78.6C-165.7,357.7-165.7,436.3-165.7,436.3z"/>
</g>
</svg>
