<?xml version="1.0" encoding="utf-8"?>
<!-- Generator: Adobe Illustrator 19.0.0, SVG Export Plug-In . SVG Version: 6.00 Build 0)  -->
<svg version="1.2" baseProfile="tiny" id="Layer_1" xmlns="http://www.w3.org/2000/svg" xmlns:xlink="http://www.w3.org/1999/xlink"
	 x="0px" y="0px" viewBox="0 0 22 22" xml:space="preserve">
<circle id="XMLID_1_" fill="#CEEAD1" cx="11" cy="11" r="11"/>
<path id="XMLID_22_" fill="#3A7517" d="M17,10.3l-5.5-5.5c-0.1-0.1-0.3-0.2-0.5-0.2s-0.4,0.1-0.5,0.2L5,10.3
	c-0.1,0.1-0.2,0.3-0.2,0.5s0.1,0.4,0.2,0.5l0.6,0.6c0.1,0.2,0.3,0.2,0.5,0.2c0.2,0,0.4-0.1,0.5-0.2l3.3-3.4v8.2
	c0,0.2,0.1,0.4,0.2,0.5s0.3,0.2,0.5,0.2h0.9c0.2,0,0.4-0.1,0.5-0.2c0.1-0.1,0.2-0.3,0.2-0.5V8.5l3.3,3.4c0.1,0.1,0.3,0.2,0.5,0.2
	s0.4-0.1,0.5-0.2l0.6-0.6c0.1-0.1,0.2-0.3,0.2-0.5S17.2,10.5,17,10.3z"/>
</svg>
