<?xml version="1.0" encoding="utf-8"?>
<!-- Generator: Adobe Illustrator 19.0.0, SVG Export Plug-In . SVG Version: 6.00 Build 0)  -->
<svg version="1.1" id="Layer_1" xmlns="http://www.w3.org/2000/svg" xmlns:xlink="http://www.w3.org/1999/xlink" x="0px" y="0px"
	 viewBox="0 0 100 100" style="enable-background:new 0 0 100 100;" xml:space="preserve">
<style type="text/css">
</style>
<g id="XMLID_208_" class='ThemeMenuIcon'>
	<path id="XMLID_249_" class="st0" d="M81.8,93.1c-19.9,0-39.8,0-59.7,0c-2.3,0-3.1-0.7-3.1-3c0-26.3,0-52.5,0-78.8
		c0-2.5,0.2-2.1-2.1-2.1c-2.8,0-4.4,1.6-4.4,4.4c0,6.8,0,13.5,0,20.3c0,20.5,0,40.9,0,61.4c0,2.8,1.6,4.4,4.3,4.4
		c20.6,0,41.3,0,61.9,0c2.7,0,4.3-1.5,4.3-4.3c0-0.7,0-1.4,0-2.2C82.5,93.2,82.2,93.1,81.8,93.1z"/>
	<path id="XMLID_254_" class="st0" d="M82.7,0.4H55.3c-9.9,0-19.7,0-29.6,0c-2.4,0-4.4,2-4.4,4.4c0,28,0,56.1,0,84.1
		c0,1.8,0.2,1.9,1.9,1.9c19.8,0,39.7,0,59.5,0c2.6,0,4.7-2.1,4.7-4.7c0-17.8,0-35.7,0-53.5c0-0.4,0-0.8,0-1.3V5.2
		C87.5,2.5,85.3,0.4,82.7,0.4z M36.3,43.9c0.1-0.5,0.6-1.1,1.1-1.3c1.8-0.9,3.6-1.8,5.4-2.6c1.4-0.6,3-1.1,4.5-1.6
		c1-0.3,1.4-0.9,1.4-1.9c0-1.5,0.1-2.9-1-4.1c-0.2-0.2-0.3-0.6-0.4-0.9c-0.6-1.8-1.2-3.6-1.7-5.5c-0.2-0.7,0-1.5,0-2.3
		c0-0.8,0-1.5-0.1-2.3c-0.4-3.9,1.6-6.8,5.3-7.6c3.2-0.7,6.2-0.3,8.5,2.3c1.3,1.4,1.8,3.1,1.5,5c-0.1,1.1,0.1,2.2,0,3.3
		c-0.1,1-0.4,2-0.6,2.9c-0.2,0.8-0.5,1.7-0.8,2.5c-0.5,1.1-0.9,2.3-1.5,3.4c-0.7,1.4-0.6,2.9-0.2,4.3c0.1,0.4,0.8,0.7,1.3,0.9
		c2.4,0.9,4.9,1.7,7.2,2.8c4,1.8,3.8,2.1,3.8,6.3c-11.3,0-22.6,0-34.1,0C36,46.3,36,45.1,36.3,43.9z M56.6,75c0,0.2-0.5,0.5-0.8,0.5
		c-2.4,0-4.7,0-7.1,0c-5.1,0-10.1,0-15.2,0c-0.4,0-0.7,0-1.2-0.1c0-1.5,0-2.9,0-4.4c8.1,0,16.1,0,24.4,0
		C56.7,72.3,56.7,73.6,56.6,75z M76.5,61.4c-14.7,0-29.4,0-44.1,0c0-1.4,0-2.9,0-4.4c14.7,0,29.4,0,44.1,0
		C76.5,58.6,76.5,60,76.5,61.4z"/>
</g>
</svg>
