<?xml version="1.0" encoding="UTF-8" standalone="no"?>
<!DOCTYPE svg PUBLIC "-//W3C//DTD SVG 1.1//EN" "http://www.w3.org/Graphics/SVG/1.1/DTD/svg11.dtd">
<svg width="100%" height="100%" viewBox="0 0 512 512" version="1.1" xmlns="http://www.w3.org/2000/svg" xmlns:xlink="http://www.w3.org/1999/xlink" xml:space="preserve" xmlns:serif="http://www.serif.com/" style="fill-rule:evenodd;clip-rule:evenodd;stroke-linejoin:round;stroke-miterlimit:2;">
    <path d="M256,0C114.844,0 0,114.844 0,256C0,397.156 114.844,512 256,512C397.156,512 512,397.156 512,256C512,114.844 397.156,0 256,0ZM256,480C132.484,480 32,379.516 32,256C32,132.484 132.484,32 256,32C379.516,32 480,132.484 480,256C480,379.516 379.516,480 256,480Z" style="fill:rgb(28,60,114);fill-rule:nonzero;"/>
    <path d="M272,96L240,96L240,262.625L340.687,363.312L363.312,340.687L272,249.375L272,96Z" style="fill:rgb(28,60,114);fill-rule:nonzero;"/>
</svg>
