<svg viewBox="0 0 347 128" xmlns="http://www.w3.org/2000/svg" fill-rule="evenodd" clip-rule="evenodd" stroke-linejoin="round" stroke-miterlimit="2">
  <path fill="none" d="M0 0h346.6v127.4H0z"/>
  <g fill-rule="nonzero">
    <path d="M149.8 99.3a8 8 0 004.5 1.2c2.5 0 4.6-1.3 4.6-4.2 0-4-9.4-4.5-9.4-9.8 0-3.3 3-5.4 6.5-5.4 1 0 2.6.2 4 .7l-.3 1.8c-.9-.5-2.3-.7-3.7-.7-2.1 0-4.4.9-4.4 3.5 0 4.1 9.3 4.1 9.3 10.1 0 4.1-3.5 5.8-6.7 5.8-2 0-3.5-.4-4.6-1l.2-2zM174.8 101.4c-1.3.6-3 .9-4.3.9-5 0-6.8-3.4-6.8-7.9s2.5-7.8 6.3-7.8c4.2 0 6 3.4 6 7.4v1h-10.3c0 3.1 1.7 5.7 5 5.7 1.3 0 3.2-.6 4.1-1.1v1.8zm-.9-8c0-2.6-1-5.2-3.8-5.2-2.7 0-4.4 2.7-4.4 5.2h8.2zM189.2 89c-1-.5-2.2-.8-3.2-.8-3.6 0-5.7 2.6-5.7 6.2 0 3.4 2 6.3 5.5 6.3 1.1 0 2.2-.3 3.3-.7l.2 1.7a11 11 0 01-3.8.6c-4.8 0-7.2-3.7-7.2-7.9 0-4.5 3-7.8 7.4-7.8 1.8 0 3 .4 3.6.6l-.1 1.8zM204 98.4c0 1.1 0 2.3.2 3.5h-1.8v-2.7c-.7 1.4-1.8 3-4.9 3-3.7 0-5-2.4-5-5.7V87h1.8v9c0 2.9 1 4.7 3.5 4.7 3.4 0 4.4-3 4.4-5.5V87h1.9v11.4zM208.7 90.3l-.1-3.3h1.8v2.9h.1c.7-1.7 2-3.3 3.8-3.3l1.3.2v2c-.4-.2-.9-.2-1.3-.2-3 0-3.7 3.2-3.7 6v7.3h-1.9V90.3zM220.3 83h-1.8v-2.5h1.8V83zm-1.8 4h1.8v15h-1.8V87zM231.4 88.6H228v9.6c0 1.4.5 2.5 2 2.5.7 0 1.2-.2 1.7-.4l.1 1.6c-.4.1-1.3.4-2.2.4-3.3 0-3.4-2.3-3.4-5v-8.7h-3V87h3v-3.6l1.8-.7V87h3.4v1.6zM236.6 83h-1.9v-2.5h1.9V83zm-1.9 4h1.9v15h-1.9V87zM251.2 101.4c-1.3.6-3 .9-4.3.9-5 0-6.8-3.4-6.8-7.9s2.5-7.8 6.3-7.8c4.2 0 6 3.4 6 7.4v1H242c0 3.1 1.7 5.7 5 5.7 1.3 0 3.2-.6 4.1-1.1v1.8zm-.9-8c0-2.6-1-5.2-3.8-5.2-2.7 0-4.4 2.7-4.4 5.2h8.2zM254.7 99.7c1.1.6 2.5 1 3.9 1 1.8 0 3.3-1 3.3-2.7 0-3.5-7.2-3-7.2-7.3 0-3 2.4-4 4.9-4 .8 0 2.4.1 3.7.6L263 89c-1-.4-2.3-.7-3.3-.7-1.9 0-3.2.6-3.2 2.5 0 2.8 7.3 2.4 7.3 7.3 0 3.2-3 4.3-5.2 4.3-1.4 0-2.9-.2-4.2-.7l.2-1.9z" fill="#003974"/>
    <path d="M200.7 72.3c11 0 19.4-6.4 19.4-17.4 0-11-8.4-17.5-19.4-17.5-11 0-19.5 6.4-19.5 17.5 0 11 8.4 17.4 19.5 17.4m0-8c-5.4 0-7.6-4.5-7.6-9.4 0-5 2.2-9.4 7.6-9.4 5.3 0 7.5 4.4 7.5 9.4s-2.2 9.4-7.5 9.4" fill="#ed1d24"/>
    <path d="M219 46.2h6.6v13.6c0 8 2.5 12.5 12.9 12.5 2.8 0 5-.3 7.2-.6l-.4-7.5c-1.1.2-2.4.5-3.5.5-3.7 0-4.6-2.1-4.6-6.1V46.2h8v-8h-8V26.6l-11.4 4v7.6H219v8zM285.7 71.6h11.5V55h.1l9.3 16.6h14L308 53.5l11.6-15.3h-12.7l-9.6 14h-.1V26.6l-11.5 4v41zM150.5 71.6H162V55h.2l9.2 16.6h14l-12.6-18.1 11.6-15.3h-12.6l-9.6 14h-.2V26.6l-11.5 3.9v41zM281.6 71.7c-.6-2.6-.7-5.3-.7-8V51.3c0-10.4-7.5-14-16-14-5 0-9.4.7-13.6 2.3l.2 8a22 22 0 0110.8-2.6c4.2 0 7.6 1.3 7.7 5.9-1.5-.3-3.6-.5-5.4-.5-6.3 0-17.5 1.2-17.5 11.6 0 7.3 6 10.6 12.7 10.6 4.8 0 8-1.9 10.7-6 0 1.7.3 3.4.3 5.2h10.8zM258 61c0-3.2 3.1-4.5 7-4.5l5 .2c0 4-2.8 8-7.2 8-2.7 0-4.8-1.3-4.8-3.7" fill="#ed1d24"/>
    <path d="M27.3 63.7C27.3 36.8 52.6 15 83.8 15c31.3 0 56.6 21.7 56.6 48.6 0 26.8-25.3 48.6-56.6 48.6-31.2 0-56.5-21.8-56.5-48.6" fill="#003974"/>
    <path d="M77 30.8L90 26.5v71L77 101.9V30.8z" fill="#ed1d24"/>
    <path d="M126.3 68.7c-1.2 10.2-6.9 20.4-19.3 20.4-7.3 0-13-5-16.9-11v-7c5 2.4 9.5 5 15.1 5 6.9.2 13-2.4 15.6-7.4h5.5zm-41.5 6.4C79 82 73.5 89 63.2 89c-14.6 0-21.5-14.1-21.5-26 0-11.3 5.4-24.7 19.6-24.7 6.2 0 12.1 3.8 15.7 7.8v9.6c-3-2-9.6-4-14-4-9-.2-17 3.8-16.8 12.7.1 6 6.2 10.2 12.2 10.2 9.3 0 14.9-8.4 19.6-14.8l5.5-7.4c5.2-7.3 11.3-14 21.6-14 12.2 0 19 9.9 21 20h-5.6A13 13 0 00110 53c-9.6 0-15.3 8.8-20 15.3L84.7 75" fill="#fff"/>
  </g>
</svg>
