<svg viewBox="0 0 682 682" xmlns="http://www.w3.org/2000/svg" fill-rule="evenodd" clip-rule="evenodd" stroke-linejoin="round" stroke-miterlimit="2">
  <path d="M567.17 113.9C507.35 54 427.8 21 343.05 20.98c-174.64 0-316.76 142.12-316.83 316.8a316.25 316.25 0 0042.29 158.4L23.56 660.35l167.96-44.05a316.5 316.5 0 00151.4 38.56h.13c174.62 0 316.76-142.13 316.83-316.82.03-84.66-32.9-164.26-92.71-224.14zM343.05 601.35h-.11a263 263 0 01-134.03-36.7l-9.61-5.71-99.67 26.14 26.6-97.17-6.26-9.96A262.68 262.68 0 0179.71 337.8C79.77 192.61 197.91 74.5 343.15 74.5c70.34.02 136.46 27.45 186.18 77.23 49.71 49.77 77.08 115.93 77.05 186.3-.06 145.2-118.18 263.33-263.33 263.33zm144.44-197.22c-7.91-3.97-46.83-23.11-54.1-25.76-7.24-2.64-12.53-3.95-17.8 3.97-5.28 7.92-20.45 25.75-25.07 31.03-4.62 5.29-9.23 5.95-17.15 1.99-7.92-3.97-33.42-12.33-63.66-39.3-23.53-20.99-39.42-46.91-44.04-54.83-4.62-7.94-.04-11.8 3.47-16.16 8.57-10.64 17.15-21.8 19.79-27.08 2.64-5.28 1.32-9.9-.66-13.87-1.98-3.96-17.81-42.93-24.4-58.78-6.44-15.43-12.96-13.35-17.82-13.59-4.61-.23-9.9-.28-15.17-.28-5.28 0-13.86 1.98-21.12 9.91-7.25 7.93-27.7 27.08-27.7 66.04 0 38.97 28.37 76.61 32.32 81.9 3.96 5.28 55.83 85.24 135.24 119.53a452.97 452.97 0 0045.13 16.67c18.97 6.03 36.22 5.18 49.86 3.14 15.21-2.27 46.84-19.15 53.44-37.64 6.6-18.5 6.6-34.34 4.61-37.65-1.97-3.3-7.25-5.28-15.17-9.24z" fill="#5bce8b"/>
</svg>
