<svg width="24" height="24" viewBox="0 0 24 24" fill="none" xmlns="http://www.w3.org/2000/svg">
<path d="M8.75 3.5H15.25C15.6297 3.5 15.9435 3.78215 15.9932 4.14823L16 4.25V7.5H17.75C19.5449 7.5 21 8.95507 21 10.75V17.25C21 19.0449 19.5449 20.5 17.75 20.5H6.25C4.45507 20.5 3 19.0449 3 17.25V10.75C3 8.95507 4.45507 7.5 6.25 7.5H8V4.25C8 3.8703 8.28215 3.55651 8.64823 3.50685L8.75 3.5ZM17.75 9H6.25C5.2835 9 4.5 9.7835 4.5 10.75V17.25C4.5 18.2165 5.2835 19 6.25 19H17.75C18.7165 19 19.5 18.2165 19.5 17.25V10.75C19.5 9.7835 18.7165 9 17.75 9ZM14.5 5H9.5V7.5H14.5V5Z" fill="#aaa"/>
</svg>
