<svg width="14" height="14" viewBox="0 0 14 14" fill="none" xmlns="http://www.w3.org/2000/svg">
<path d="M9.16671 8.00004H6.50004C6.22404 8.00004 6.00004 7.77604 6.00004 7.50004V3.50004C6.00004 3.22404 6.22404 3.00004 6.50004 3.00004C6.77604 3.00004 7.00004 3.22404 7.00004 3.50004V7.00004H9.16671C9.44271 7.00004 9.66671 7.22404 9.66671 7.50004C9.66671 7.77604 9.44271 8.00004 9.16671 8.00004ZM7.00004 0.333374C3.31871 0.333374 0.333374 3.31871 0.333374 7.00004C0.333374 10.6814 3.31871 13.6667 7.00004 13.6667C10.6814 13.6667 13.6667 10.6814 13.6667 7.00004C13.6667 3.31871 10.6814 0.333374 7.00004 0.333374Z" fill="#FA474D"/>
</svg>
