<svg width="9" height="9" viewBox="0 0 9 9" fill="none" xmlns="http://www.w3.org/2000/svg">
<path d="M1.82117 0.727993H3.521C3.7222 0.727993 3.88531 0.891101 3.88531 1.0923C3.88531 1.27674 3.74825 1.42917 3.57043 1.45329L3.521 1.45662H1.821C1.24833 1.45634 0.778465 1.8969 0.732011 2.45772L0.72833 2.53491L0.729708 6.67865C0.72986 7.25711 1.17938 7.7305 1.7481 7.7688L1.82293 7.7713L5.95085 7.76563C6.52875 7.76484 7.00139 7.31563 7.03977 6.74746L7.04229 6.6727V4.96952C7.04229 4.76832 7.20539 4.60521 7.4066 4.60521C7.59103 4.60521 7.74346 4.74227 7.76758 4.92009L7.77091 4.96952V6.6727C7.77091 7.64532 7.00856 8.44009 6.0485 8.4916L5.95185 8.49425L1.82514 8.49992L1.72638 8.49742C0.797358 8.44906 0.0524926 7.70458 0.0036359 6.77559L0.0010855 6.67885L0 2.55078L0.00214182 2.45242C0.0507623 1.52332 0.795551 0.778666 1.72445 0.730473L1.82117 0.727993ZM4.97758 0L8.16102 0.000246447L8.20939 0.00693688L8.25835 0.0206271L8.28596 0.032336C8.31182 0.0435968 8.33665 0.0583704 8.35982 0.076448L8.3935 0.10691L8.43418 0.154797L8.4605 0.198569L8.47929 0.242438L8.48862 0.273621L8.49521 0.304641L8.49976 0.350399L8.5 3.52357C8.5 3.72477 8.33689 3.88788 8.13569 3.88788C7.95125 3.88788 7.79883 3.75082 7.7747 3.573L7.77138 3.52357L7.77101 1.24352L4.26427 4.75219C4.13496 4.88155 3.93257 4.89336 3.78993 4.78757L3.74906 4.7523C3.61969 4.62299 3.60789 4.4206 3.71368 4.27796L3.74894 4.23709L7.25514 0.728623H4.97758C4.79314 0.728623 4.64072 0.591567 4.6166 0.413746L4.61327 0.364311C4.61327 0.179875 4.75033 0.0274492 4.92815 0.00332576L4.97758 0Z" fill="#0D4582"/>
</svg>
