<svg width="20" height="16" viewBox="0 0 20 16" fill="none" xmlns="http://www.w3.org/2000/svg">
<path d="M6 14H10C10.5523 14 11 14.4477 11 15C11 15.5128 10.614 15.9355 10.1166 15.9933L10 16H6C5.44772 16 5 15.5523 5 15C5 14.4872 5.38604 14.0645 5.88338 14.0067L6 14ZM4 9H12C12.5523 9 13 9.44772 13 10C13 10.5128 12.614 10.9355 12.1166 10.9933L12 11H4C3.44772 11 3 10.5523 3 10C3 9.48716 3.38604 9.06449 3.88338 9.00673L4 9ZM1 4H15C15.5523 4 16 4.44772 16 5C16 5.51284 15.614 5.93551 15.1166 5.99327L15 6H1C0.447715 6 0 5.55228 0 5C0 4.48716 0.38604 4.06449 0.883379 4.00673L1 4Z" fill="#1C3C72"/>
<circle cx="16" cy="4" r="4" fill="#FA474D"/>
</svg>
