<svg width="36" height="36" viewBox="0 0 36 36" fill="none" xmlns="http://www.w3.org/2000/svg">
<path d="M0 18.037C0 8.07407 8.05305 0 17.9841 0C27.947 0 36 8.03704 36 18C36 27.9259 27.947 36 17.9841 36C8.05305 36 0 27.9259 0 18" fill="#003974"/>
<path d="M15.8196 5.85211L19.9575 4.25952V30.5558L15.8196 32.1855V5.85211Z" fill="#ED1D24"/>
<path d="M31.5119 19.8889C31.13 23.6667 29.3157 27.4445 25.3687 27.4445C23.0451 27.4445 21.2308 25.5926 19.9894 23.3704V20.7778C21.5809 21.6667 23.0133 22.6296 24.7958 22.6296C26.992 22.7037 28.9337 21.7407 29.7613 19.8889H31.5119V19.8889ZM18.3024 22.2593C16.4562 24.8148 14.7056 27.4074 11.4271 27.4074C6.77984 27.4074 4.58356 22.1852 4.58356 17.7778C4.58356 13.5926 6.30239 8.62964 10.8223 8.62964C12.7958 8.62964 14.6737 10.037 15.8196 11.5185V15.0741C14.8647 14.3333 12.7639 13.5926 11.3634 13.5926C8.49868 13.5185 5.95226 15 6.01592 18.2963C6.04775 20.5185 7.98939 22.0741 9.89921 22.0741C12.8594 22.0741 14.6419 18.963 16.1379 16.5926L17.8886 13.8519C19.5438 11.1482 21.4854 8.66668 24.7639 8.66668C28.6472 8.66668 30.8117 12.3333 31.4483 16.0741H29.6658C29.2839 15.4574 28.782 14.9547 28.2011 14.6071C27.6202 14.2595 26.9768 14.0768 26.3236 14.0741C23.2679 14.0741 21.4536 17.3333 19.9576 19.7408L18.2706 22.2222" fill="white"/>
</svg>
