<svg width="17" height="16" viewBox="0 0 17 16" fill="none" xmlns="http://www.w3.org/2000/svg">
<path fill-rule="evenodd" clip-rule="evenodd" d="M2.59423 7.69681L2.57779 7.66592V7.67968L1.73618 6.15909C1.62769 5.96001 1.38442 5.89479 1.19703 6.00806C1.00964 6.12133 0.943884 6.3719 1.05237 6.57098L2.18986 8.62357C2.20301 8.79179 2.24904 8.88783 2.30821 8.94278L2.57779 9.50913V9.09378C2.51862 9.06981 2.46602 9.04229 2.4167 9.00803C2.38054 8.99773 2.34109 8.97714 2.30821 8.94278L2.22603 8.77119C2.27205 8.8707 2.3378 8.94625 2.4167 9.00803C2.50218 9.02862 2.57779 9.0011 2.57779 9.0011V9.09378C2.59423 9.09724 2.61396 9.10408 2.63368 9.111C2.82107 9.16249 3.0512 9.1316 3.22873 9.03892L3.26818 9.01833L5.03688 7.50463C5.20454 7.36047 5.23084 7.10304 5.09276 6.92798C4.95469 6.74947 4.70483 6.72543 4.53717 6.86957L3.37338 7.86157C3.46543 5.88793 4.40895 4.01725 5.9541 2.91545C8.6926 0.986432 12.3155 1.67635 14.1664 4.53555C16.014 7.39136 15.3499 11.1773 12.6146 13.1063C9.87612 15.0388 6.24998 14.263 4.40238 11.4827C4.27745 11.2974 4.03089 11.2494 3.85336 11.3798C3.67255 11.5103 3.62981 11.7677 3.75145 11.953C5.8489 15.104 9.95502 15.9758 13.0552 13.7893C16.1586 11.5995 16.9147 7.31235 14.8173 4.07218C12.7231 0.835399 8.6137 0.0459445 5.51357 2.2324C3.79418 3.45778 2.72902 5.51379 2.59423 7.69681Z" fill="#0D4582" stroke="#0D4582" stroke-width="0.5"/>
</svg>
