<?xml version="1.0" encoding="utf-8"?>
<!-- Generator: Adobe Illustrator 19.0.0, SVG Export Plug-In . SVG Version: 6.00 Build 0)  -->
<svg version="1.1" id="Layer_1" xmlns="http://www.w3.org/2000/svg" xmlns:xlink="http://www.w3.org/1999/xlink" x="0px" y="0px"
	 viewBox="0 0 100 100" style="enable-background:new 0 0 100 100;" xml:space="preserve">
<style type="text/css">
</style>
<g id="XMLID_2_" class='MyAccountImage'>
	<path id="XMLID_24_" class="st0" d="M0,12.1v75.8h100V12.1H0z M94.3,82.3H5.7V17.7h88.7V82.3z"/>
	<path id="XMLID_27_" class="st0" d="M28.5,46.1c5.3,0,9.7,4.7,9.7,10.4h5.7c0-6.2-3.4-11.6-8.3-14.3c1.8-1.9,2.9-4.4,2.9-7.3
		c0-5.7-4.5-10.3-9.9-10.3c-5.5,0-9.9,4.6-9.9,10.3c0,2.8,1.1,5.4,2.9,7.3c-4.9,2.7-8.3,8.1-8.3,14.3h5.7
		C18.8,50.7,23.1,46.1,28.5,46.1z M28.5,30.2c2.4,0,4.3,2.1,4.3,4.7c0,2.6-1.9,4.7-4.3,4.7c-2.4,0-4.3-2.1-4.3-4.7
		C24.2,32.3,26.1,30.2,28.5,30.2z"/>
	<rect id="XMLID_29_" x="54.9" y="25.3" class="st0" width="33.5" height="5.7"/>
	<rect id="XMLID_30_" x="54.9" y="40.4" class="st0" width="33.5" height="5.7"/>
	<rect id="XMLID_31_" x="54.9" y="55.5" class="st0" width="33.5" height="5.7"/>
	<rect id="XMLID_39_" x="11.6" y="70.9" class="st0" width="76.8" height="5.7"/>
</g>
</svg>
