<?xml version="1.0" encoding="utf-8"?>
<!-- Generator: Adobe Illustrator 19.0.0, SVG Export Plug-In . SVG Version: 6.00 Build 0)  -->
<svg version="1.1" id="Layer_1" xmlns="http://www.w3.org/2000/svg" xmlns:xlink="http://www.w3.org/1999/xlink" x="0px" y="0px"
	 viewBox="0 0 100 100" style="enable-background:new 0 0 100 100;" xml:space="preserve">
<style type="text/css">
</style>
<g id="XMLID_1_" class='MyAccountImage'>
	<path id="XMLID_87_" class="st0" d="M93.5,91.5V26.6H61.7V1.4H6.5v90H0.3v7.1h99.3v-7.1H93.5z M86.5,33.8v57.8h-40V33.8H86.5z
		 M54.7,8.5v18H39.4v64.8H13.5V8.5H54.7z"/>
	<rect id="XMLID_89_" x="54.1" y="37.7" class="st0" width="7.1" height="11.5"/>
	<rect id="XMLID_90_" x="71.8" y="37.7" class="st0" width="7.1" height="11.5"/>
	<rect id="XMLID_91_" x="54.1" y="58.2" class="st0" width="7.1" height="11.5"/>
	<rect id="XMLID_92_" x="71.8" y="58.2" class="st0" width="7.1" height="11.5"/>
	<rect id="XMLID_93_" x="54.1" y="78.6" class="st0" width="7.1" height="11.5"/>
	<rect id="XMLID_94_" x="71.8" y="78.6" class="st0" width="7.1" height="11.5"/>
	<rect id="XMLID_95_" x="21.8" y="34.1" class="st0" width="7.1" height="11.5"/>
	<rect id="XMLID_96_" x="21.8" y="11.9" class="st0" width="7.1" height="11.5"/>
	<rect id="XMLID_97_" x="39.4" y="11.9" class="st0" width="7.1" height="11.5"/>
	<rect id="XMLID_98_" x="21.8" y="56.4" class="st0" width="7.1" height="11.5"/>
	<rect id="XMLID_99_" x="21.8" y="78.6" class="st0" width="7.1" height="11.5"/>
</g>
</svg>
