<?xml version="1.0" encoding="utf-8"?>
<!-- Generator: Adobe Illustrator 19.0.0, SVG Export Plug-In . SVG Version: 6.00 Build 0)  -->
<svg version="1.1" id="Layer_1" xmlns="http://www.w3.org/2000/svg" xmlns:xlink="http://www.w3.org/1999/xlink" x="0px" y="0px"
	 viewBox="0 0 100 100" style="enable-background:new 0 0 100 100;" xml:space="preserve">
<style type="text/css">
</style>
<g id="XMLID_2_" class='MyAccountImage'>
	<path id="XMLID_20_" class="st0" d="M87.8,10.5H12.3c-6.7,0-12.1,5.9-12.1,13.1v52.9c0,7.2,5.4,13.1,12.1,13.1h75.5
		c6.7,0,12.1-5.9,12.1-13.1v-53C99.8,16.3,94.5,10.5,87.8,10.5z M6.7,23.5c0-0.4,0-0.8,0.1-1.1l42.6,36.5l43.5-37.5
		c0.2,0.7,0.3,1.4,0.3,2.1v53c0,3.4-2.5,6.1-5.5,6.1H12.3c-3.1,0-5.5-2.7-5.5-6.1V23.5z M11.6,17.5c0.2,0,0.5,0,0.7,0h74.9
		L49.5,49.9L11.6,17.5z"/>
</g>
</svg>
