<?xml version="1.0" encoding="utf-8"?>
<!-- Generator: Adobe Illustrator 19.0.0, SVG Export Plug-In . SVG Version: 6.00 Build 0)  -->
<svg version="1.1" id="Layer_1" xmlns="http://www.w3.org/2000/svg" xmlns:xlink="http://www.w3.org/1999/xlink" x="0px" y="0px"
	 viewBox="0 0 100 100" style="enable-background:new 0 0 100 100;" xml:space="preserve">
<style type="text/css">
</style>
<g id="XMLID_3_" class='MyAccountImage'>
	<path id="XMLID_32_" class="st0" d="M85.6,2.2H14.4c-8,0-14.2,4.5-14.2,10.3v75.2c0,5.7,6.2,10.3,14.2,10.3h71.2
		c8,0,14.2-4.5,14.2-10.3V12.5C99.8,6.7,93.6,2.2,85.6,2.2z M91.1,12.5v75.1c0,1.9-2.5,3.4-5.5,3.4H14.4c-3,0-5.5-1.5-5.5-3.4V12.5
		c0-1.9,2.5-3.4,5.5-3.4h71.2C88.6,9.1,91.1,10.6,91.1,12.5z"/>
	<g id="XMLID_2_">
		<rect id="XMLID_33_" x="21.1" y="78" class="st0" width="57.6" height="6.9"/>
		<rect id="XMLID_34_" x="21.1" y="66.5" class="st0" width="57.6" height="6.9"/>
		<path id="XMLID_37_" class="st0" d="M50,43.5c8.2,0,14.9,6.7,14.9,14.9h6.8c0-8.6-5-16-12.3-19.5c2.7-2.5,4.4-6.1,4.4-10
			c0-7.6-6.2-13.7-13.7-13.7c-7.6,0-13.7,6.2-13.7,13.7c0,4,1.7,7.5,4.4,10c-7.3,3.5-12.3,10.9-12.3,19.5h6.8
			C35.1,50.2,41.8,43.5,50,43.5z M50,21.9c3.8,0,6.9,3.1,6.9,6.9s-3.1,6.9-6.9,6.9s-6.9-3.1-6.9-6.9S46.2,21.9,50,21.9z"/>
	</g>
</g>
</svg>
