<?xml version="1.0" encoding="utf-8"?>
<!-- Generator: Adobe Illustrator 19.0.0, SVG Export Plug-In . SVG Version: 6.00 Build 0)  -->
<svg version="1.1" id="Layer_1" xmlns="http://www.w3.org/2000/svg" xmlns:xlink="http://www.w3.org/1999/xlink" x="0px" y="0px"
	 viewBox="0 0 100 100" style="enable-background:new 0 0 100 100;" xml:space="preserve">
<style type="text/css">
</style>
<g id="XMLID_2_" class='MyAccountImage'>
	<path id="XMLID_15_" class="st0" d="M50,0.7C22.8,0.7,0.7,22.8,0.7,50S22.8,99.3,50,99.3c27.2,0,49.3-22.1,49.3-49.3
		S77.2,0.7,50,0.7z M22.5,82.2c1-14.3,12.9-25.7,27.5-25.7c14.6,0,26.5,11.3,27.5,25.7c-7.4,6.3-17,10.2-27.5,10.2
		C39.5,92.4,29.9,88.6,22.5,82.2z M50,49c-7.8,0-14.1-6.3-14.1-14.1S42.2,20.7,50,20.7c7.8,0,14.1,6.3,14.1,14.1S57.8,49,50,49z
		 M83.5,75.9c-2.7-11-10.8-20-21.2-24c5.3-3.8,8.8-10,8.8-17.1c0-11.6-9.5-21.1-21.1-21.1c-11.6,0-21.1,9.5-21.1,21.1
		c0,7,3.5,13.2,8.8,17.1c-10.5,4-18.5,13-21.2,24C10.9,68.7,7.6,59.7,7.6,50c0-23.4,19-42.4,42.4-42.4c23.4,0,42.4,19,42.4,42.4
		C92.4,59.7,89.1,68.7,83.5,75.9z"/>
</g>
</svg>
