<?xml version="1.0" encoding="utf-8"?>
<!-- Generator: Adobe Illustrator 19.0.0, SVG Export Plug-In . SVG Version: 6.00 Build 0)  -->
<svg version="1.1" id="Layer_1" xmlns="http://www.w3.org/2000/svg" xmlns:xlink="http://www.w3.org/1999/xlink" x="0px" y="0px"
	 viewBox="0 0 100 100" style="enable-background:new 0 0 100 100;" xml:space="preserve">
<style type="text/css">
</style>
<g id="XMLID_2_" class='MyAccountImage'>
	<path id="XMLID_6_" class="st0" d="M64.7,73c-2,0-3.5,1.6-3.5,3.5v7.7c0,4.1-3.3,7.4-7.4,7.4H14.6c-4.1,0-7.4-3.3-7.4-7.4V15.8
		c0-4.1,3.3-7.4,7.4-7.4h39.1c4.1,0,7.4,3.3,7.4,7.4v9.1c0,2,1.6,3.5,3.5,3.5s3.5-1.6,3.5-3.5v-9.1c0-8-6.5-14.5-14.5-14.5H14.6
		c-8,0-14.5,6.5-14.5,14.5v68.3c0,8,6.5,14.5,14.5,14.5h39.1c8,0,14.5-6.5,14.5-14.5v-7.7C68.3,74.6,66.7,73,64.7,73z"/>
	<path id="XMLID_7_" class="st0" d="M98.8,48.1l-13-13c-1.4-1.4-3.6-1.4-5,0c-1.4,1.4-1.4,3.6,0,5l6.7,6.7H41.2
		c-2,0-3.5,1.6-3.5,3.5s1.6,3.5,3.5,3.5H88l-7.4,7.4c-1.4,1.4-1.4,3.6,0,5c0.7,0.7,1.6,1,2.5,1c0.9,0,1.8-0.3,2.5-1l13.2-13.2
		c0.7-0.7,1-1.6,1-2.5S99.5,48.8,98.8,48.1z"/>
</g>
</svg>
