<?xml version="1.0" encoding="utf-8"?>
<!-- Generator: Adobe Illustrator 19.0.0, SVG Export Plug-In . SVG Version: 6.00 Build 0)  -->
<svg version="1.1" id="Layer_1" xmlns="http://www.w3.org/2000/svg" xmlns:xlink="http://www.w3.org/1999/xlink" x="0px" y="0px"
	 viewBox="0 0 100 100" style="enable-background:new 0 0 100 100;" xml:space="preserve">
<style type="text/css">
</style>
<g id="XMLID_3_" class='MyAccountImage'>
	<path id="XMLID_23_" class="st0" d="M75.7-0.1H24.3c-5.9,0-10.7,4.8-10.7,10.7v78.7c0,5.9,4.8,10.7,10.7,10.7h51.5
		c5.9,0,10.7-4.8,10.7-10.7V10.7C86.5,4.8,81.7-0.1,75.7-0.1z M79.3,10.7v78.6c0,2-1.5,3.5-3.5,3.5H24.3c-2,0-3.5-1.5-3.5-3.5V10.7
		c0-2,1.5-3.5,3.5-3.5h51.5C77.7,7.2,79.3,8.8,79.3,10.7z"/>
	<rect id="XMLID_24_" x="41.3" y="83.3" class="st0" width="17.2" height="7.2"/>
</g>
</svg>
