<?xml version="1.0" encoding="utf-8"?>
<!-- Generator: Adobe Illustrator 19.0.0, SVG Export Plug-In . SVG Version: 6.00 Build 0)  -->
<svg version="1.1" id="Layer_1" xmlns="http://www.w3.org/2000/svg" xmlns:xlink="http://www.w3.org/1999/xlink" x="0px" y="0px"
	 viewBox="0 0 100 100" style="enable-background:new 0 0 100 100;" xml:space="preserve">
<style type="text/css">
</style>
<g id="XMLID_3_" class='MyAccountImage'>
	<path id="XMLID_16_" class="st0" d="M65.8,52.6c8-5.2,13-14.2,13-23.8C78.8,13.1,66,0.3,50.3,0.3c-15.7,0-28.4,12.7-28.4,28.4
		c0,9.7,4.9,18.6,12.9,23.8c-19.1,6.6-32.2,25.1-32.2,46v1.4h7.2v-1.4c0-22.5,17.3-40.7,39.2-41.4h2.5C73.5,57.8,90.6,76,90.6,98.5
		v1.4h7.2v-1.4C97.8,77.7,84.8,59.3,65.8,52.6z M71.6,28.7c0,11.4-8.9,20.7-20.1,21.2l-2.3,0c-11.3-0.6-20.1-10-20.1-21.2
		c0-11.7,9.5-21.2,21.2-21.2S71.6,17,71.6,28.7z"/>
</g>
</svg>
