<svg width="14" height="14" viewBox="0 0 14 14" fill="none" xmlns="http://www.w3.org/2000/svg">
<path d="M7.00004 0.333313C10.6819 0.333313 13.6667 3.31808 13.6667 6.99998C13.6667 10.6819 10.6819 13.6666 7.00004 13.6666C3.31814 13.6666 0.333374 10.6819 0.333374 6.99998C0.333374 3.31808 3.31814 0.333313 7.00004 0.333313ZM9.14649 4.97976L6.16671 7.95954L4.85359 6.64643C4.65833 6.45116 4.34175 6.45116 4.14649 6.64643C3.95123 6.84169 3.95123 7.15827 4.14649 7.35353L5.81315 9.0202C6.00842 9.21546 6.325 9.21546 6.52026 9.0202L9.85359 5.68687C10.0489 5.4916 10.0489 5.17502 9.85359 4.97976C9.65833 4.7845 9.34175 4.7845 9.14649 4.97976Z" fill="#25C192"/>
</svg>
