<svg width="14" height="14" viewBox="0 0 14 14" fill="none" xmlns="http://www.w3.org/2000/svg">
<path d="M9.16671 7.99998H6.50004C6.22404 7.99998 6.00004 7.77598 6.00004 7.49998V3.49998C6.00004 3.22398 6.22404 2.99998 6.50004 2.99998C6.77604 2.99998 7.00004 3.22398 7.00004 3.49998V6.99998H9.16671C9.44271 6.99998 9.66671 7.22398 9.66671 7.49998C9.66671 7.77598 9.44271 7.99998 9.16671 7.99998ZM7.00004 0.333313C3.31871 0.333313 0.333374 3.31865 0.333374 6.99998C0.333374 10.6813 3.31871 13.6666 7.00004 13.6666C10.6814 13.6666 13.6667 10.6813 13.6667 6.99998C13.6667 3.31865 10.6814 0.333313 7.00004 0.333313Z" fill="#FFC847"/>
</svg>
